<svg id="barcode-reader" xmlns="http://www.w3.org/2000/svg" width="26" height="24" viewBox="0 0 26 24">
  <path id="Path_379" data-name="Path 379" d="M7.5,10.5h2.621V24.3H7.5Zm11.8,0h1.311V24.3H19.3Zm-5.243,0h3.932V24.3H14.053Zm-2.621,0h1.311V24.3H11.432Zm10.485,0h3.932V24.3H21.917Z" transform="translate(-3.674 -5.399)" fill="#7d8893"/>
  <path id="Path_380" data-name="Path 380" d="M5.6,7.167h5.2V4.5H5.6A2.636,2.636,0,0,0,3,7.167V12.5H5.6ZM5.6,28.5h5.2V25.833H5.6V20.5H3v5.333A2.636,2.636,0,0,0,5.6,28.5Zm20.8-24H21.2V7.167h5.2V12.5H29V7.167A2.636,2.636,0,0,0,26.4,4.5Zm0,21.333H21.2V28.5h5.2A2.636,2.636,0,0,0,29,25.833V20.5H26.4Z" transform="translate(-3 -4.5)" fill="#7d8893"/>
</svg>
