<svg id="upcCode" xmlns="http://www.w3.org/2000/svg" viewBox="0 0 390 101"><polygon points="102 0 104 0 104 0 102 0"/><polygon points="106 0 108 0 108 0 106 0"/><polygon points="116 0 118 0 118 0 116 0"/><polygon points="120 0 122 0 122 0 120 0"/><polygon points="122 0 124 0 124 0 122 0"/><polygon points="124 0 126 0 126 0 124 0"/><polygon points="130 0 132 0 132 0 130 0"/><polygon points="134 0 136 0 136 0 134 0"/><polygon points="140 0 142 0 142 0 140 0"/><polygon points="142 0 144 0 144 0 142 0"/><polygon points="144 0 146 0 146 0 144 0"/><polygon points="148 0 150 0 150 0 148 0"/><polygon points="150 0 152 0 152 0 150 0"/><polygon points="152 0 154 0 154 0 152 0"/><polygon points="158 0 160 0 160 0 158 0"/><polygon points="162 0 164 0 164 0 162 0"/><polygon points="164 0 166 0 166 0 164 0"/><polygon points="166 0 168 0 168 0 166 0"/><polygon points="172 0 174 0 174 0 172 0"/><polygon points="176 0 178 0 178 0 176 0"/><polygon points="178 0 180 0 180 0 178 0"/><polygon points="180 0 182 0 182 0 180 0"/><polygon points="186 0 188 0 188 0 186 0"/><polygon points="190 0 192 0 192 0 190 0"/><polygon points="194 0 196 0 196 0 194 0"/><polygon points="198 0 200 0 200 0 198 0"/><polygon points="206 0 208 0 208 0 206 0"/><polygon points="208 0 210 0 210 0 208 0"/><polygon points="212 0 214 0 214 0 212 0"/><polygon points="220 0 222 0 222 0 220 0"/><polygon points="222 0 224 0 224 0 222 0"/><polygon points="226 0 228 0 228 0 226 0"/><polygon points="232 0 234 0 234 0 232 0"/><polygon points="238 0 240 0 240 0 238 0"/><polygon points="240 0 242 0 242 0 240 0"/><polygon points="248 0 250 0 250 0 248 0"/><polygon points="250 0 252 0 252 0 250 0"/><polygon points="254 0 256 0 256 0 254 0"/><polygon points="260 0 262 0 262 0 260 0"/><polygon points="266 0 268 0 268 0 266 0"/><polygon points="268 0 270 0 270 0 268 0"/><polygon points="276 0 278 0 278 0 276 0"/><polygon points="278 0 280 0 280 0 278 0"/><polygon points="282 0 284 0 284 0 282 0"/><polygon points="286 0 288 0 288 0 286 0"/><rect y="29" width="4.11" height="72"/><rect x="8.21" y="29" width="4.11" height="72"/><rect x="16.42" y="29" width="4.11" height="72"/><rect x="20.53" y="29" width="4.11" height="72"/><rect x="24.63" y="29" width="4.11" height="72"/><rect x="28.74" y="29" width="4.11" height="72"/><rect x="36.95" y="29" width="4.11" height="72"/><rect x="53.37" y="29" width="4.11" height="72"/><rect x="57.47" y="29" width="4.11" height="72"/><rect x="65.68" y="29" width="4.11" height="72"/><rect x="73.89" y="29" width="4.11" height="72"/><rect x="78" y="29" width="4.11" height="72"/><rect x="94.42" y="29" width="4.11" height="72"/><rect x="110.84" y="29" width="4.11" height="72"/><rect x="114.95" y="29" width="4.11" height="72"/><rect x="123.16" y="29" width="4.11" height="72"/><rect x="139.58" y="29" width="4.11" height="72"/><rect x="143.68" y="29" width="4.11" height="72"/><rect x="151.89" y="29" width="4.11" height="72"/><rect x="168.32" y="29" width="4.11" height="72"/><rect x="172.42" y="29" width="4.11" height="72"/><rect x="180.63" y="29" width="4.11" height="72"/><rect x="188.84" y="29" width="4.11" height="72"/><rect x="197.05" y="29" width="4.11" height="72"/><rect x="205.26" y="29" width="4.11" height="72"/><rect x="209.37" y="29" width="4.11" height="72"/><rect x="213.47" y="29" width="4.11" height="72"/><rect x="225.79" y="29" width="4.11" height="72"/><rect x="234" y="29" width="4.11" height="72"/><rect x="238.11" y="29" width="4.11" height="72"/><rect x="242.21" y="29" width="4.11" height="72"/><rect x="254.53" y="29" width="4.11" height="72"/><rect x="262.74" y="29" width="4.11" height="72"/><rect x="266.84" y="29" width="4.11" height="72"/><rect x="275.05" y="29" width="4.11" height="72"/><rect x="279.16" y="29" width="4.11" height="72"/><rect x="291.47" y="29" width="4.11" height="72"/><rect x="295.58" y="29" width="4.11" height="72"/><rect x="299.68" y="29" width="4.11" height="72"/><rect x="312" y="29" width="4.11" height="72"/><rect x="320.21" y="29" width="4.11" height="72"/><rect x="324.32" y="29" width="4.11" height="72"/><rect x="332.53" y="29" width="4.11" height="72"/><rect x="336.63" y="29" width="4.11" height="72"/><rect x="348.95" y="29" width="4.11" height="72"/><rect x="353.05" y="29" width="4.11" height="72"/><rect x="357.16" y="29" width="4.11" height="72"/><rect x="369.47" y="29" width="4.11" height="72"/><rect x="377.68" y="29" width="4.11" height="72"/><rect x="385.89" y="29" width="4.11" height="72"/></svg>