<svg width="30" height="30" viewBox="0 0 30 30" fill="none" xmlns="http://www.w3.org/2000/svg">
<path d="M22.9155 10.4045L21.6077 9.08733C21.5557 9.02911 21.474 9 21.3997 9C21.318 9 21.2437 9.02911 21.1917 9.08733L12.1268 18.0309L8.82783 14.7999C8.76838 14.7417 8.69408 14.7126 8.61978 14.7126C8.54548 14.7126 8.47118 14.7417 8.41173 14.7999L7.08916 16.0952C6.97028 16.2116 6.97028 16.3936 7.08916 16.51L11.2501 20.5852C11.5176 20.8472 11.8445 21 12.1194 21C12.5132 21 12.855 20.7162 12.9813 20.5998H12.9887L22.9229 10.8193C23.0269 10.6956 23.0269 10.5136 22.9155 10.4045Z" fill="#21C78A"/>
</svg>
