<svg width="36" height="36" viewBox="0 0 36 36" fill="none" xmlns="http://www.w3.org/2000/svg">
<g opacity="0.7">
<path d="M24 14H12V25.6316C12 26.3876 12.5967 27 13.3333 27H22.6667C23.4033 27 24 26.3876 24 25.6316V14Z" stroke="#FF1D1D" stroke-width="1.3" stroke-miterlimit="10" stroke-linecap="round" stroke-linejoin="round"/>
<path d="M21 12H15V10.5C15 9.67125 15.6712 9 16.5 9H19.5C20.3288 9 21 9.67125 21 10.5V12Z" stroke="#FF1D1D" stroke-width="1.3" stroke-miterlimit="10" stroke-linecap="round" stroke-linejoin="round"/>
<path d="M26 14H10V12.6667C10 12.2987 10.2987 12 10.6667 12H25.3333C25.7013 12 26 12.2987 26 12.6667V14Z" stroke="#FF1D1D" stroke-width="1.3" stroke-miterlimit="10" stroke-linecap="round" stroke-linejoin="round"/>
<path d="M15.9746 18L20.0246 22.0909" stroke="#FF1D1D" stroke-width="1.3" stroke-miterlimit="10" stroke-linecap="round" stroke-linejoin="round"/>
<path d="M15.9746 22.0909L20.0246 18" stroke="#FF1D1D" stroke-width="1.3" stroke-miterlimit="10" stroke-linecap="round" stroke-linejoin="round"/>
</g>
</svg>
