<svg width="16" height="14" viewBox="0 0 16 14" fill="none" xmlns="http://www.w3.org/2000/svg">
<path d="M15.343 5.54773H13.1398V3.1248C13.1398 2.74773 12.847 2.4416 12.4864 2.4416H7.20194L4.80955 0.0485333C4.77742 0.0186667 4.73814 0.00373333 4.69886 0H0.653444C0.2928 0.00373333 0 0.306133 0 0.686933V13.3168C0 13.6939 0.2928 14 0.653444 14H12.6114C12.8756 14 13.1184 13.832 13.2184 13.5744L15.9536 6.49227C15.9857 6.41013 16 6.32427 16 6.23467C15.9964 5.85387 15.7036 5.54773 15.343 5.54773ZM11.2873 5.54773H3.54931C3.28507 5.54773 3.04226 5.71573 2.94228 5.97333L1.46757 9.8V1.53813H4.17039L6.6092 3.97973H11.6687V5.54773H11.2873Z" fill="#0180F0"/>
</svg>
