<svg width="41" height="40" viewBox="0 0 41 40" fill="none" xmlns="http://www.w3.org/2000/svg">
<path d="M27.6526 19.4792C29.4654 19.0167 31.2782 18.535 33.0909 18.0726C33.6116 17.9377 33.9973 17.6487 34.1516 17.1285C34.4216 16.1651 33.5923 15.2788 32.6088 15.5293C30.8925 15.9532 29.1761 16.3963 27.4597 16.8587L15.5223 19.9416C14.2302 20.2691 12.996 20.5967 11.6846 20.9435C11.2218 19.9609 10.7589 19.0167 10.3154 18.0726C9.96826 17.3597 9.25472 17.0514 8.57974 17.3597C7.88548 17.6487 7.61549 18.4194 7.94334 19.1516C8.36761 20.0572 8.79188 20.9821 9.25472 21.8684C9.50542 22.3501 9.81398 22.8125 10.1418 23.2364C10.4697 23.6795 10.9325 23.8144 11.4532 23.6988C12.8224 23.3713 14.1917 22.9859 15.5223 22.6584L27.6526 19.4792Z" fill="url(#paint0_linear_1302_28963)"/>
<path d="M0.999754 18.6901C1.09618 17.9579 1.17332 17.245 1.28903 16.5129C1.5783 14.8173 2.099 13.1795 2.81254 11.6188C2.85111 11.5418 2.90897 11.4454 2.98611 11.3105C3.23681 12.8134 3.54537 14.2393 4.18177 15.5495C4.54819 16.3009 4.49033 17.0138 4.39391 17.8038C3.81536 22.6593 5.06888 26.9946 8.21233 30.771C9.65871 32.5244 11.4136 33.8924 13.4386 34.9136C13.535 34.9714 13.6314 35.0292 13.6893 35.1448C12.995 34.8751 12.3007 34.6053 11.6065 34.3163C9.6587 33.4878 7.8652 32.3703 6.2067 31.0215C4.70247 29.7884 3.39109 28.3818 2.21471 26.8211C2.13757 26.7248 2.099 26.5899 2.06043 26.4743C1.52045 24.8944 1.17332 23.2566 1.03832 21.5996C1.03832 21.484 0.999754 21.3683 0.980469 21.2335C0.999754 20.3857 0.999754 19.5379 0.999754 18.6901Z" fill="url(#paint1_linear_1302_28963)"/>
<path d="M39.0491 11.3301C39.2612 11.831 39.4734 12.2935 39.6469 12.7559C41.3054 17.226 41.4404 21.754 39.9169 26.2819C39.7241 26.8407 39.3191 27.3224 38.9334 27.7848C37.352 29.7308 35.4814 31.3686 33.3407 32.7174C31.7401 33.7386 30.043 34.5285 28.2109 35.068C28.3266 35.0102 28.4231 34.9524 28.5388 34.8946C33.63 32.1393 36.6385 27.9197 37.5449 22.1971C37.8341 20.386 37.7377 18.5748 37.4099 16.7636C37.3906 16.6095 37.3906 16.4361 37.4677 16.3012C38.1813 14.7405 38.6827 13.1413 38.9334 11.4457C38.9527 11.465 38.9912 11.4264 39.0491 11.3301Z" fill="url(#paint2_linear_1302_28963)"/>
<path d="M19.5715 20.0189C19.9958 19.2482 20.4008 18.4968 20.8251 17.7261C21.1915 17.9187 21.5579 18.1114 21.905 18.3041C23.12 18.9785 23.8335 18.1885 23.8914 17.2829C23.9685 15.9919 23.9106 14.6817 23.9106 13.333C20.2465 13.333 16.6016 13.333 12.9375 13.333C12.9375 12.5815 12.9375 11.8494 12.9375 11.1172C18.2023 11.1172 23.4671 11.1172 28.7705 11.1172C28.7705 11.8301 28.7705 12.5623 28.7705 13.333C28.1726 13.333 27.5748 13.333 26.9191 13.333C26.9191 14.0074 26.8805 14.6432 26.9191 15.279C27.0927 17.36 26.0513 18.8436 24.5278 20.0767C24.1806 20.3657 23.7949 20.6355 23.39 20.8282C22.1943 21.4447 21.0565 21.1943 20.0151 20.4235C19.8608 20.2694 19.7258 20.1538 19.5715 20.0189Z" fill="url(#paint3_linear_1302_28963)"/>
<path d="M26.2627 31.8302C25.9734 29.6722 24.5849 28.4583 22.7528 27.5913C21.345 26.9361 19.9179 26.3196 18.568 25.5489C17.7002 25.0479 16.948 24.3543 16.1959 23.6799C15.6752 23.2175 15.5017 22.6009 15.521 21.888C15.5402 19.441 15.521 16.994 15.521 14.5662C15.521 14.4313 15.521 14.2965 15.521 14.123C16.5238 14.123 17.5073 14.123 18.5294 14.123C18.5294 14.2772 18.5294 14.4313 18.5294 14.5855C18.5294 16.8013 18.5294 19.0171 18.5101 21.2329C18.5101 21.7916 18.6837 22.2733 19.0887 22.5816C19.8022 23.1019 20.5351 23.6028 21.3065 24.0074C22.1164 24.4313 23.0035 24.7396 23.8328 25.125C25.1056 25.7223 26.282 26.4545 27.3041 27.4371C28.7312 28.8244 28.1526 31.2136 26.2627 31.8302Z" fill="url(#paint4_linear_1302_28963)"/>
<path d="M4.5856 16.5699C4.00705 15.4138 3.62135 14.2577 3.33207 13.0824C3.19708 12.5622 3.10066 12.0227 3.0428 11.4832C3.02352 11.3098 3.08137 11.0978 3.15851 10.9244C5.10629 7.0901 8.01832 4.18066 11.8367 2.1768C12.1453 2.02266 12.4732 1.84925 12.801 1.79145C13.6495 1.65657 14.4016 2.15754 14.6138 2.92825C14.8452 3.7375 14.4595 4.54675 13.6688 4.91283C11.8367 5.77989 10.2554 6.95522 8.88615 8.40031C6.7648 10.5968 5.37628 13.2173 4.68202 16.1845C4.64345 16.3001 4.62417 16.3965 4.5856 16.5699Z" fill="url(#paint5_linear_1302_28963)"/>
<path d="M37.4672 16.4365C37.0429 15.2419 36.6765 14.0088 36.1365 12.8527C34.478 9.28816 31.8553 6.6292 28.2875 4.91436C27.4197 4.49047 27.0533 3.52708 27.4776 2.67929C27.8826 1.85078 28.8854 1.52322 29.7339 1.94712C33.6873 3.9317 36.7344 6.86041 38.7978 10.8103C38.9521 11.1186 39.01 11.4076 38.9328 11.7159C38.6436 13.3729 38.1807 14.9529 37.4672 16.4365C37.4286 16.4751 37.4479 16.4751 37.4672 16.4365Z" fill="url(#paint6_linear_1302_28963)"/>
<path d="M19.7071 40.0008C18.9742 39.9045 18.2414 39.8467 17.5278 39.6925C10.1996 38.2089 5.1469 33.9893 2.31201 27.1106C2.29272 27.0721 2.29272 27.0336 2.27344 26.995C2.27344 26.9758 2.27344 26.9758 2.27344 26.995C3.10269 27.9199 3.89338 28.8833 4.79977 29.7503C7.44181 32.2937 10.4888 34.1434 14.018 35.2224C15.0594 35.5307 16.0429 35.9931 17.1036 36.2436C20.6134 37.1106 24.0462 36.8024 27.4018 35.4343C28.501 34.9912 29.6388 34.6058 30.7381 34.1434C32.4351 33.4112 34.0165 32.4286 35.4436 31.234C36.2343 30.5789 37.0057 29.8852 37.7385 29.153C38.4328 28.4594 39.0306 27.6887 39.7056 26.918C39.667 27.0143 39.667 27.1106 39.6284 27.1877C36.6971 34.1434 31.548 38.3438 24.104 39.7311C23.4869 39.8467 22.8698 39.8852 22.2527 39.9623C21.4041 40.0008 20.5556 40.0008 19.7071 40.0008Z" fill="url(#paint7_linear_1302_28963)"/>
<path d="M21.423 0C21.5388 0.0578035 21.6738 0.0963391 21.7895 0.154143C22.7344 0.520231 23.3323 1.52216 23.178 2.50482C23.0237 3.54528 22.233 4.33526 21.2495 4.4316C20.1117 4.52794 19.2053 3.9499 18.8581 2.92871C18.511 1.79191 19.0896 0.578035 20.2081 0.134875C20.3238 0.0963391 20.4202 0.0385356 20.5359 0C20.8252 0 21.1338 0 21.423 0Z" fill="url(#paint8_linear_1302_28963)"/>
<defs>
<linearGradient id="paint0_linear_1302_28963" x1="7.78676" y1="19.6049" x2="34.1949" y2="19.6049" gradientUnits="userSpaceOnUse">
<stop stop-color="#FAC90E"/>
<stop offset="1" stop-color="#F98407"/>
</linearGradient>
<linearGradient id="paint1_linear_1302_28963" x1="0.999754" y1="23.2355" x2="13.7022" y2="23.2355" gradientUnits="userSpaceOnUse">
<stop stop-color="#00AAF6"/>
<stop offset="1" stop-color="#016EED"/>
</linearGradient>
<linearGradient id="paint2_linear_1302_28963" x1="28.2444" y1="23.211" x2="40.9846" y2="23.211" gradientUnits="userSpaceOnUse">
<stop stop-color="#00AAF6"/>
<stop offset="1" stop-color="#016EED"/>
</linearGradient>
<linearGradient id="paint3_linear_1302_28963" x1="12.9189" y1="16.1175" x2="28.7532" y2="16.1175" gradientUnits="userSpaceOnUse">
<stop stop-color="#96309F"/>
<stop offset="1" stop-color="#651995"/>
</linearGradient>
<linearGradient id="paint4_linear_1302_28963" x1="15.5128" y1="22.9716" x2="28.0987" y2="22.9716" gradientUnits="userSpaceOnUse">
<stop stop-color="#96309F"/>
<stop offset="1" stop-color="#651995"/>
</linearGradient>
<linearGradient id="paint5_linear_1302_28963" x1="3.02321" y1="9.17767" x2="14.6666" y2="9.17767" gradientUnits="userSpaceOnUse">
<stop stop-color="#651995"/>
<stop offset="1" stop-color="#96309F"/>
</linearGradient>
<linearGradient id="paint6_linear_1302_28963" x1="27.3133" y1="9.1203" x2="38.9726" y2="9.1203" gradientUnits="userSpaceOnUse">
<stop stop-color="#96309F"/>
<stop offset="1" stop-color="#651995"/>
</linearGradient>
<linearGradient id="paint7_linear_1302_28963" x1="2.28053" y1="33.4827" x2="39.6963" y2="33.4827" gradientUnits="userSpaceOnUse">
<stop stop-color="#FAC90E"/>
<stop offset="1" stop-color="#F98407"/>
</linearGradient>
<linearGradient id="paint8_linear_1302_28963" x1="18.7608" y1="2.21969" x2="23.2149" y2="2.21969" gradientUnits="userSpaceOnUse">
<stop stop-color="#FAC90E"/>
<stop offset="1" stop-color="#F98407"/>
</linearGradient>
</defs>
</svg>
