<svg xmlns="http://www.w3.org/2000/svg" width="16.615" height="16.417" viewBox="0 0 16.615 16.417">
  <g id="print" transform="translate(-3.437 -3.61)">
    <path id="Path_381" data-name="Path 381" d="M20.049,8.767a.375.375,0,0,0-.373-.351H16.983V3.986a.376.376,0,0,0-.376-.376H6.881a.376.376,0,0,0-.376.376v4.43H3.812a.374.374,0,0,0-.373.351h0v7.551a.376.376,0,0,0,.376.375H6.506V13.548H16.983v3.145h2.693a.376.376,0,0,0,.376-.375V8.767h0ZM15.958,10.1H7.529V5.01a.376.376,0,0,1,.376-.376h7.677a.376.376,0,0,1,.376.376V10.1Z" fill="#fff"/>
    <path id="Path_382" data-name="Path 382" d="M10.657,27.921a.376.376,0,0,0,.376.376h7.626a.376.376,0,0,0,.376-.376v-5.06H10.657Z" transform="translate(-3.102 -8.27)" fill="#fff"/>
  </g>
</svg>
