<svg xmlns="http://www.w3.org/2000/svg" width="26" height="26" viewBox="0 0 26 26">
  <path id="qr_code" d="M7.091,18.909v2.364H4.727V18.909Zm0-14.182V7.091H4.727V4.727H7.091Zm14.182,0V7.091H18.908V4.727h2.364ZM2.364,23.618H9.455V16.545H2.364Zm0-14.163H9.455V2.364H2.364Zm14.182,0h7.091V2.364H16.545Zm-4.727,4.727V26H0V14.182Zm9.455,9.455V26H18.909V23.636Zm4.727,0V26H23.636V23.636Zm0-9.455v7.091H18.909V18.908H16.545V26H14.182V14.182h7.091v2.364h2.364V14.182H26ZM11.818,0V11.818H0V0ZM26,0V11.818H14.182V0Z" fill="#7d8893"/>
</svg>
