<svg width="6" height="12" viewBox="0 0 6 12" fill="none" xmlns="http://www.w3.org/2000/svg">
<path d="M0.136134 3.75573C0.0554622 3.66412 0.0151261 3.52672 0.0151261 3.38931C0.0151261 3.25191 0.0554622 3.1145 0.136134 3.0229L2.67731 0.137405C2.79832 0.0458015 2.87899 0 3 0C3.12101 0 3.24202 0.0458015 3.32269 0.137405L5.86387 3.0229C5.94454 3.1145 5.98487 3.25191 5.98487 3.38931C5.98487 3.52672 5.94454 3.66412 5.86387 3.75573C5.78319 3.84733 5.66219 3.89313 5.54118 3.89313C5.42017 3.89313 5.29916 3.84733 5.21849 3.75573L3 1.19084L0.741176 3.75573C0.660504 3.84733 0.539496 3.89313 0.458824 3.89313C0.378151 3.89313 0.216807 3.84733 0.136134 3.75573ZM5.25882 8.29008L3 10.855L0.741176 8.29008C0.620168 8.15267 0.458824 8.10687 0.337815 8.15267C0.176471 8.19847 0.0554622 8.33588 0.0151261 8.51908C-0.0252101 8.70229 0.015126 8.8855 0.136134 8.9771L2.67731 11.8626C2.75798 11.9542 2.87899 12 3 12C3.12101 12 3.24202 11.9542 3.32269 11.8626L5.86387 8.9771C5.98487 8.83969 6.02521 8.65649 5.98487 8.51908C5.94454 8.33588 5.82353 8.19847 5.66219 8.15267C5.54118 8.10687 5.37983 8.15267 5.25882 8.29008Z" fill="#9DA2B4"/>
</svg>
