<svg width="36" height="36" viewBox="0 0 36 36" fill="none" xmlns="http://www.w3.org/2000/svg">
<circle cx="18" cy="18" r="18" fill="#243B58"/>
<path d="M11.625 26.9249H24.375V23.7374C24.3736 22.5543 23.9031 21.42 23.0665 20.5834C22.2299 19.7468 21.0956 19.2763 19.9125 19.2749H16.0875C14.9044 19.2763 13.7701 19.7468 12.9335 20.5834C12.0969 21.42 11.6263 22.5543 11.625 23.7374V26.9249Z" fill="white"/>
<path d="M13.5371 13.5372C13.5371 14.4198 13.7988 15.2826 14.2892 16.0164C14.7795 16.7503 15.4765 17.3223 16.2919 17.66C17.1073 17.9978 18.0046 18.0861 18.8702 17.914C19.7358 17.7418 20.531 17.3168 21.1551 16.6927C21.7792 16.0686 22.2042 15.2734 22.3764 14.4078C22.5486 13.5422 22.4602 12.6449 22.1224 11.8295C21.7847 11.0141 21.2127 10.3171 20.4788 9.82677C19.745 9.33643 18.8822 9.07471 17.9996 9.07471C16.8161 9.07471 15.681 9.54486 14.8441 10.3817C14.0073 11.2186 13.5371 12.3537 13.5371 13.5372Z" fill="white"/>
</svg>
