<svg width="16" height="16" viewBox="0 0 16 16" fill="none" xmlns="http://www.w3.org/2000/svg">
<path fill-rule="evenodd" clip-rule="evenodd" d="M1 8C1.6615 4.577 4.5441 2 8 2C11.4559 2 14.3385 4.577 15 8C14.3385 11.423 11.4559 14 8 14C4.5441 14 1.6615 11.423 1 8ZM8 11.75C8.92826 11.75 9.8185 11.3549 10.4749 10.6517C11.1313 9.94839 11.5 8.99456 11.5 8C11.5 7.00544 11.1313 6.05161 10.4749 5.34835C9.8185 4.64509 8.92826 4.25 8 4.25C7.07174 4.25 6.1815 4.64509 5.52513 5.34835C4.86875 6.05161 4.5 7.00544 4.5 8C4.5 8.99456 4.86875 9.94839 5.52513 10.6517C6.1815 11.3549 7.07174 11.75 8 11.75ZM8 10.25C8.55695 10.25 9.0911 10.0129 9.48492 9.59099C9.87875 9.16903 10.1 8.59674 10.1 8C10.1 7.40326 9.87875 6.83097 9.48492 6.40901C9.0911 5.98705 8.55695 5.75 8 5.75C7.44305 5.75 6.9089 5.98705 6.51508 6.40901C6.12125 6.83097 5.9 7.40326 5.9 8C5.9 8.59674 6.12125 9.16903 6.51508 9.59099C6.9089 10.0129 7.44305 10.25 8 10.25V10.25Z" fill="#9DA2B4"/>
</svg>
