<svg width="16" height="16" viewBox="0 0 16 16" fill="none" xmlns="http://www.w3.org/2000/svg">
<path fill-rule="evenodd" clip-rule="evenodd" d="M10.4092 7.9999C10.4092 8.70714 10.1554 9.38541 9.70358 9.88551C9.25176 10.3856 8.63896 10.6666 8 10.6666C7.36103 10.6666 6.74824 10.3856 6.29642 9.88551C5.8446 9.38541 5.59077 8.70714 5.59077 7.9999C5.59077 7.29266 5.8446 6.61439 6.29642 6.1143C6.74824 5.6142 7.36103 5.33325 8 5.33325C8.63896 5.33325 9.25176 5.6142 9.70358 6.1143C10.1554 6.61439 10.4092 7.29266 10.4092 7.9999V7.9999ZM9.20461 7.9999C9.20461 8.35352 9.0777 8.69266 8.85179 8.9427C8.62588 9.19275 8.31948 9.33323 8 9.33323C7.68052 9.33323 7.37412 9.19275 7.14821 8.9427C6.9223 8.69266 6.79539 8.35352 6.79539 7.9999C6.79539 7.64628 6.9223 7.30715 7.14821 7.0571C7.37412 6.80705 7.68052 6.66658 8 6.66658C8.31948 6.66658 8.62588 6.80705 8.85179 7.0571C9.0777 7.30715 9.20461 7.64628 9.20461 7.9999V7.9999Z" fill="#777A88" stroke="#777A88" stroke-width="0.3"/>
<path fill-rule="evenodd" clip-rule="evenodd" d="M8 2C11.3675 2 14.1977 4.54932 15 7.99996C14.1977 11.4506 11.3681 13.9999 8 13.9999C4.63191 13.9999 1.80227 11.4506 1 7.99996C1.80227 4.54932 4.63191 2 8 2ZM8 12.6666C5.30408 12.6666 3.01953 10.7053 2.25219 7.99996C3.01953 5.29464 5.30408 3.33332 8 3.33332C10.6959 3.33332 12.9805 5.29464 13.7478 7.99996C12.9805 10.7053 10.6959 12.6666 8 12.6666Z" fill="#777A88" stroke="#777A88" stroke-width="0.3"/>
</svg>
