<svg width="18" height="14" viewBox="0 0 18 14" fill="none" xmlns="http://www.w3.org/2000/svg">
<path d="M15.9451 2.00521C15.9451 1.52031 15.6052 1.16667 15.1205 1.16667H8.09291C7.99163 1.16667 7.93738 1.14479 7.87228 1.07917L7.05125 0.251563C6.87402 0.0838542 6.72935 0 6.42553 0H2.94971C2.45059 0 2.05635 0.375521 2.05635 0.838542V3.5H15.9451V2.00521Z" fill="white"/>
<path d="M1.75615 4.52083C1.29319 4.52083 0.841077 4.70677 0.906181 5.40677C0.971285 6.10677 1.75615 13.0885 1.75615 13.0885C1.8538 13.7375 2.17932 14 2.66036 14H15.4098C15.8692 14 16.1694 13.7156 16.2417 13.0885C16.2417 13.0885 17.0447 6.3474 17.0953 5.59635C17.1459 4.84896 16.7734 4.52083 16.2417 4.52083H1.75615Z" fill="white"/>
</svg>
