<svg width="16" height="16" viewBox="0 0 16 16" fill="none" xmlns="http://www.w3.org/2000/svg">
<path d="M8 5.56522C7.5055 5.56522 7.02211 5.70801 6.61095 5.97555C6.1998 6.24309 5.87934 6.62335 5.6901 7.06825C5.50087 7.51315 5.45135 8.0027 5.54782 8.475C5.6443 8.9473 5.88242 9.38114 6.23208 9.72165C6.58174 10.0622 7.02724 10.2941 7.51223 10.388C7.99723 10.4819 8.49994 10.4337 8.95679 10.2494C9.41365 10.0652 9.80413 9.75309 10.0789 9.35269C10.3536 8.95229 10.5002 8.48155 10.5002 8C10.4982 7.35485 10.2342 6.73667 9.76573 6.28048C9.29728 5.82428 8.66249 5.56714 8 5.56522V5.56522ZM13.398 8C13.3967 8.2275 13.3795 8.45466 13.3467 8.67991L14.8684 9.84009C14.9347 9.89338 14.9793 9.96788 14.9944 10.0503C15.0095 10.1327 14.9939 10.2176 14.9506 10.2899L13.5111 12.7101C13.4673 12.7817 13.399 12.8361 13.3182 12.8635C13.2374 12.8909 13.1492 12.8897 13.0692 12.8601L11.28 12.1601C10.9074 12.4395 10.4997 12.6714 10.0667 12.8501L9.79922 14.6999C9.78425 14.7828 9.74019 14.858 9.67458 14.9127C9.60897 14.9675 9.52588 14.9983 9.4395 15H6.5605C6.4757 14.9984 6.39396 14.9688 6.32862 14.9162C6.26329 14.8635 6.21822 14.7908 6.20078 14.71L5.93326 12.8601C5.49912 12.6835 5.09111 12.4513 4.72003 12.1696L2.93081 12.8696C2.85083 12.8992 2.76268 12.9004 2.68185 12.8731C2.60103 12.8457 2.53271 12.7914 2.4889 12.7198L1.0494 10.3C1.00607 10.2277 0.990545 10.1427 1.0056 10.0603C1.02066 9.97793 1.06532 9.90342 1.13159 9.85013L2.65329 8.68996C2.62083 8.4613 2.60371 8.23083 2.60203 8C2.60333 7.7725 2.62046 7.54534 2.65329 7.32009L1.13159 6.15991C1.06532 6.10662 1.02066 6.03212 1.0056 5.94971C0.990545 5.86731 1.00607 5.78237 1.0494 5.71009L2.4889 3.28991C2.53266 3.21827 2.60096 3.16395 2.68179 3.1365C2.76262 3.10906 2.8508 3.11025 2.93081 3.13987L4.72003 3.83987C5.0926 3.56048 5.50031 3.32862 5.93326 3.14991L6.20078 1.30009C6.21575 1.21723 6.25981 1.142 6.32542 1.08727C6.39103 1.03254 6.47412 1.00169 6.5605 1H9.4395C9.5243 1.00161 9.60604 1.03116 9.67138 1.08384C9.73671 1.13652 9.78178 1.20921 9.79922 1.29004L10.0667 3.13987C10.5014 3.31638 10.91 3.54862 11.2815 3.83043L13.0692 3.13043C13.1492 3.10079 13.2373 3.09955 13.3181 3.12694C13.399 3.15432 13.4673 3.20858 13.5111 3.28017L14.9506 5.70035C14.9939 5.77263 15.0095 5.85757 14.9944 5.93997C14.9793 6.02238 14.9347 6.09688 14.8684 6.15017L13.3467 7.31035C13.3792 7.5389 13.3963 7.76928 13.398 8V8Z" fill="#00A0F5"/>
</svg>
