<svg width="16" height="16" viewBox="0 0 16 16" fill="none" xmlns="http://www.w3.org/2000/svg">
<path d="M4.7693 7.45455H10.154V2.54545C10.154 2.40079 10.0973 2.26205 9.99629 2.15976C9.89531 2.05747 9.75835 2 9.61554 2H1.53847C1.39566 2 1.2587 2.05747 1.15771 2.15976C1.05673 2.26205 1 2.40079 1 2.54545V13.4545C1 13.5992 1.05673 13.7379 1.15771 13.8402C1.2587 13.9425 1.39566 14 1.53847 14H9.61554C9.75835 14 9.89531 13.9425 9.99629 13.8402C10.0973 13.7379 10.154 13.5992 10.154 13.4545V8.54545H4.7693V7.45455Z" fill="#00A0F5"/>
<path d="M14.8424 7.61443L11.7694 4.50125L11.0078 5.27273L13.1617 7.45455H10.154V8.54545H13.1617L11.0078 10.7273L11.7694 11.4988L14.8424 8.38557C14.9433 8.28329 15 8.1446 15 8C15 7.8554 14.9433 7.71671 14.8424 7.61443Z" fill="#00A0F5"/>
</svg>
