<svg width="24" height="24" viewBox="0 0 24 24" fill="none" xmlns="http://www.w3.org/2000/svg">
<path d="M22 11.6455L17.6102 14.9864V12.5093H12.5763V10.9529H17.6102V8.31281L22 11.6455ZM15.3559 5.99864H11.2966V4.56451H15.3051C16.0424 4.56451 16.6441 5.23268 16.6441 6.04753V9.4373H15.3475L15.3559 5.99864ZM8.77119 21L2.89831 18.4332C2.39831 18.4332 2 17.8547 2 17.1458V6.85423C2 6.14532 2.39831 5.56677 2.89831 5.56677L8.77119 3C9.27119 3 9.67797 3.57854 9.67797 4.28746V19.7207C9.67797 20.4215 9.27119 21 8.77119 21ZM7.28814 10.4966C6.67797 10.4966 6.17797 10.9774 6.17797 11.5641C6.17797 12.1589 6.67797 12.6315 7.28814 12.6315C7.90678 12.6315 8.39831 12.1507 8.39831 11.5641C8.39831 10.9774 7.89831 10.4966 7.28814 10.4966ZM15.3559 13.7967H16.6525V17.9443C16.6525 18.7673 16.0508 19.4355 15.3136 19.4355H11.2966V17.9932H15.3559V13.7967Z" fill="#F86464"/>
</svg>
