<svg width="22" height="22" viewBox="0 0 22 22" fill="none" xmlns="http://www.w3.org/2000/svg">
<path d="M16.8546 20.629C15.3466 20.629 14.1934 19.4758 14.1934 17.9677C14.1934 16.4596 15.3466 15.3064 16.8546 15.3064C18.3627 15.3064 19.5159 16.4596 19.5159 17.9677C19.5159 19.4758 18.3627 20.629 16.8546 20.629ZM16.8546 17.0806C16.3224 17.0806 15.9676 17.4354 15.9676 17.9677C15.9676 18.4999 16.3224 18.8548 16.8546 18.8548C17.3869 18.8548 17.7417 18.4999 17.7417 17.9677C17.7417 17.4354 17.3869 17.0806 16.8546 17.0806Z" fill="#00A0F5"/>
<path d="M8.87125 20.629C7.36319 20.629 6.20996 19.4758 6.20996 17.9677C6.20996 16.4596 7.36319 15.3064 8.87125 15.3064C10.3793 15.3064 11.5325 16.4596 11.5325 17.9677C11.5325 19.4758 10.3793 20.629 8.87125 20.629ZM8.87125 17.0806C8.33899 17.0806 7.98415 17.4354 7.98415 17.9677C7.98415 18.4999 8.33899 18.8548 8.87125 18.8548C9.40351 18.8548 9.75835 18.4999 9.75835 17.9677C9.75835 17.4354 9.40351 17.0806 8.87125 17.0806Z" fill="#00A0F5"/>
<path d="M20.1371 4.66129L18.0081 12.6452H6.91936L4.6129 3.33065C4.34677 2.53226 3.6371 2 2.83871 2H0.887097C0.354839 2 0 2.35484 0 2.8871C0 3.41935 0.354839 3.77419 0.887097 3.77419H2.83871L5.14516 13.0887C5.32258 13.8871 6.03226 14.4194 6.83065 14.4194H17.9194C18.7177 14.4194 19.4274 13.8871 19.6048 13.0887L22 4.66129H20.1371Z" fill="#00A0F5"/>
<path d="M13.3064 2H11.5322V7.32258H13.3064V2Z" fill="#00A0F5"/>
<path d="M15.9679 6.43555L12.4195 9.98393L8.87109 6.43555H15.9679Z" fill="#00A0F5"/>
</svg>
