<svg width="22" height="22" viewBox="0 0 22 22" fill="none" xmlns="http://www.w3.org/2000/svg">
<g clip-path="url(#clip0_3030_58011)">
<path d="M16.1155 20H5.88447C3.47788 20 2.13646 19.6359 1.24934 18.744C0.362216 17.8553 0 16.5068 0 14.0874V13.5721C0 13.1462 0.343798 12.8006 0.767406 12.8006C1.75583 12.8006 2.557 11.9921 2.557 11.0015C2.557 10.0079 1.75276 9.20247 0.767406 9.20247C0.343798 9.20247 0 8.85685 0 8.431V7.91565C0 5.49631 0.362216 4.14778 1.24934 3.25596C2.13339 2.36414 3.47788 2 5.88447 2H16.1155C18.5221 2 19.8635 2.36414 20.7507 3.25596C21.6378 4.14778 22 5.49631 22 7.91565V8.94325C22 9.36911 21.6562 9.71473 21.2326 9.71473C20.2442 9.71473 19.443 10.5232 19.443 11.5138C19.443 12.5044 20.2472 13.3129 21.2326 13.3129C21.6562 13.3129 22 13.6585 22 14.0843C22 16.5037 21.6378 17.8522 20.7507 18.744C19.8635 19.6359 18.5221 20 16.1155 20ZM1.53481 14.2541C1.54709 16.0871 1.78959 17.1085 2.33291 17.6547C2.89159 18.2164 3.95368 18.4571 5.88447 18.4571H16.1155C18.0433 18.4571 19.1053 18.2164 19.6671 17.6547C20.1582 17.161 20.4007 16.2815 20.456 14.7632C18.9979 14.4115 17.9082 13.0876 17.9082 11.5138C17.9082 9.93691 19.001 8.60998 20.4652 8.26127V7.91565C20.4652 5.97771 20.2258 4.90999 19.6671 4.34528C19.1053 3.78364 18.0433 3.54295 16.1155 3.54295H5.88447C3.95368 3.54295 2.89159 3.78364 2.33291 4.34528C1.78959 4.89148 1.55016 5.91291 1.53481 7.74593C2.99902 8.09463 4.09181 9.42157 4.09181 10.9985C4.09181 12.5784 2.99902 13.9054 1.53481 14.2541Z" fill="#00A0F5"/>
<path d="M7.9291 14.5996C7.73264 14.5996 7.53619 14.5255 7.38577 14.3743C7.08495 14.0719 7.08495 13.5843 7.38577 13.2819L13.525 7.11011C13.8258 6.8077 14.3108 6.8077 14.6117 7.11011C14.9125 7.41253 14.9125 7.9001 14.6117 8.20252L8.47242 14.3743C8.32201 14.5255 8.12555 14.5996 7.9291 14.5996Z" fill="#00A0F5"/>
<path d="M14.0714 14.8589H14.0622C13.4974 14.8589 13.04 14.3991 13.04 13.8313C13.04 13.2635 13.4974 12.8037 14.0622 12.8037H14.0714C14.6362 12.8037 15.0936 13.2635 15.0936 13.8313C15.0936 14.3991 14.6393 14.8589 14.0714 14.8589Z" fill="#00A0F5"/>
<path d="M7.93178 9.19949H7.92258C7.35776 9.19949 6.90039 8.73969 6.90039 8.17189C6.90039 7.60408 7.35776 7.14429 7.92258 7.14429H7.93178C8.4966 7.14429 8.95397 7.60408 8.95397 8.17189C8.95397 8.73969 8.49966 9.19949 7.93178 9.19949Z" fill="#00A0F5"/>
</g>
<defs>
<clipPath id="clip0_3030_58011">
<rect width="22" height="18" fill="white" transform="translate(0 2)"/>
</clipPath>
</defs>
</svg>
