<svg width="16" height="16" viewBox="0 0 16 16" fill="none" xmlns="http://www.w3.org/2000/svg">
<g clip-path="url(#clip0_2929_62535)">
<path d="M11.7229 5.57462C11.7229 2.49675 9.22694 0.000244141 6.14804 0.000244141C3.06914 0.000244141 0.573669 2.49675 0.573669 5.57462C0.573669 6.21762 0.649165 6.63618 0.861787 7.2797C1.27624 8.47428 3.44765 6.22635 4.38185 7.55189C5.31605 8.87846 2.27464 10.0422 4.31406 10.8383C5.2426 11.0632 5.50504 11.1485 6.14804 11.1485C9.22694 11.149 11.7229 8.65403 11.7229 5.57462ZM11.1549 5.24644C11.1549 5.78724 10.6393 6.22635 10.0035 6.22635C9.36818 6.22635 8.85254 5.78775 8.85254 5.24644C8.85254 4.70513 9.36766 4.26602 10.0035 4.26602C10.6393 4.26653 11.1549 4.70564 11.1549 5.24644ZM8.85254 1.85837C9.48784 1.85837 10.0035 2.29748 10.0035 2.83879C10.0035 3.3801 9.48887 3.81921 8.85254 3.81921C8.21622 3.81921 7.70162 3.3801 7.70162 2.83879C7.70162 2.29748 8.21673 1.85837 8.85254 1.85837ZM2.35168 5.9259C1.71587 5.9259 1.20075 5.48731 1.20075 4.946C1.20075 4.40469 1.71587 3.96558 2.35168 3.96558C2.98748 3.96558 3.5026 4.40469 3.5026 4.946C3.5026 5.48731 2.98748 5.9259 2.35168 5.9259ZM3.69982 3.66924C3.06401 3.66924 2.54889 3.23065 2.54889 2.68934C2.54889 2.14803 3.06401 1.70892 3.69982 1.70892C4.33563 1.70892 4.85126 2.14803 4.85126 2.68934C4.85126 3.23065 4.33563 3.66924 3.69982 3.66924ZM5.10291 1.57128C5.10291 1.02997 5.61854 0.590859 6.25435 0.590859C6.89016 0.590859 7.40579 1.02997 7.40579 1.57128C7.40579 2.11259 6.89068 2.55118 6.25435 2.55118C5.61854 2.55118 5.10291 2.11259 5.10291 1.57128ZM7.0771 10.3606C6.44078 10.3606 5.92566 9.92205 5.92566 9.38023C5.92566 8.83892 6.44078 8.40032 7.0771 8.40032C7.7124 8.40032 8.22803 8.83892 8.22803 9.38023C8.22803 9.92154 7.7124 10.3606 7.0771 10.3606ZM8.22803 7.70288C8.22803 7.16157 8.74315 6.72246 9.37896 6.72246C10.0148 6.72246 10.5304 7.16157 10.5304 7.70288C10.5304 8.24419 10.0148 8.6833 9.37896 8.6833C8.74315 8.6833 8.22803 8.24419 8.22803 7.70288Z" fill="#00A0F5"/>
<path d="M15.2748 8.74183C15.4674 8.5554 15.4782 8.24726 15.2959 8.04183C15.1125 7.83691 14.8039 7.81328 14.5979 7.98379L14.5969 7.98225L9.83345 12.2393C9.16631 11.6738 8.53872 11.8064 7.81765 12.4514C7.21574 12.9891 7.10224 13.8848 6.76225 14.685C6.64926 14.9202 6.42278 15.3064 6.25432 15.5123C6.13312 15.6602 6.12336 15.7696 6.19218 15.8467C6.3668 16.0423 7.0514 16.031 7.74164 15.9206V15.9201C8.62551 15.7789 9.63058 15.4461 10.0497 15.0003C10.7733 14.2294 10.8704 13.6563 10.4924 13.0204L15.2769 8.7444L15.2748 8.74183ZM7.58808 15.5421C7.5737 15.6012 7.55932 15.6587 7.54649 15.7121C6.88294 15.8051 6.51933 15.7599 6.40121 15.7101C6.40891 15.6977 6.42021 15.6818 6.43613 15.6618C6.57171 15.4959 6.74017 15.2247 6.86702 14.9931C7.10789 15.0912 7.40166 15.1338 7.68823 15.1133C7.65896 15.2509 7.62198 15.4055 7.58808 15.5421Z" fill="#00A0F5"/>
</g>
<defs>
<clipPath id="clip0_2929_62535">
<rect width="16" height="16" fill="white"/>
</clipPath>
</defs>
</svg>
