<svg width="26" height="32" viewBox="0 0 26 32" fill="none" xmlns="http://www.w3.org/2000/svg">
<path d="M19 32H3C2.20435 32 1.44129 31.6839 0.87868 31.1213C0.316071 30.5587 0 29.7957 0 29V7.00002C0 6.20437 0.316071 5.4413 0.87868 4.87869C1.44129 4.31609 2.20435 4.00002 3 4.00002H5C5.26522 4.00002 5.51957 4.10537 5.70711 4.29291C5.89464 4.48044 6 4.7348 6 5.00002C6 5.26523 5.89464 5.51959 5.70711 5.70712C5.51957 5.89466 5.26522 6.00002 5 6.00002H3C2.73478 6.00002 2.48043 6.10537 2.29289 6.29291C2.10536 6.48044 2 6.7348 2 7.00002V29C2 29.2652 2.10536 29.5196 2.29289 29.7071C2.48043 29.8947 2.73478 30 3 30H19C19.2652 30 19.5196 29.8947 19.7071 29.7071C19.8946 29.5196 20 29.2652 20 29V11.829C20.0001 11.6975 19.9743 11.5673 19.924 11.4458C19.8737 11.3244 19.8 11.214 19.707 11.121L14.879 6.29302C14.786 6.20003 14.6757 6.12629 14.5542 6.07601C14.4327 6.02574 14.3025 5.99991 14.171 6.00002H9C8.73478 6.00002 8.48043 5.89466 8.29289 5.70712C8.10536 5.51959 8 5.26523 8 5.00002C8 4.7348 8.10536 4.48044 8.29289 4.29291C8.48043 4.10537 8.73478 4.00002 9 4.00002H14.171C14.5653 3.99876 14.9559 4.07581 15.3202 4.2267C15.6844 4.3776 16.0151 4.59932 16.293 4.87902L21.121 9.70702C21.4007 9.98492 21.6224 10.3156 21.7733 10.6799C21.9242 11.0441 22.0013 11.4347 22 11.829V29C22 29.7957 21.6839 30.5587 21.1213 31.1213C20.5587 31.6839 19.7956 32 19 32Z" fill="#04009A"/>
<path d="M25 19C24.7348 19 24.4804 18.8947 24.2929 18.7071C24.1054 18.5196 24 18.2652 24 18V7.82902C24.0001 7.69754 23.9743 7.56733 23.924 7.44584C23.8737 7.32435 23.8 7.21397 23.707 7.12102L18.879 2.29302C18.786 2.20003 18.6757 2.12629 18.5542 2.07601C18.4327 2.02574 18.3025 1.99991 18.171 2.00002H7C6.73478 2.00002 6.48043 2.10537 6.29289 2.29291C6.10536 2.48044 6 2.7348 6 3.00002V5.00002C6 5.26523 5.89464 5.51959 5.70711 5.70712C5.51957 5.89466 5.26522 6.00002 5 6.00002C4.73478 6.00002 4.48043 5.89466 4.29289 5.70712C4.10536 5.51959 4 5.26523 4 5.00002V3.00002C4 2.20437 4.31607 1.4413 4.87868 0.878695C5.44129 0.316086 6.20435 1.50863e-05 7 1.50863e-05H18.171C18.5653 -0.00123988 18.9559 0.0758134 19.3202 0.226705C19.6844 0.377596 20.0151 0.599321 20.293 0.879015L25.121 5.70702C25.4007 5.98492 25.6224 6.3156 25.7733 6.67986C25.9242 7.04413 26.0013 7.43473 26 7.82902V18C26 18.2652 25.8946 18.5196 25.7071 18.7071C25.5196 18.8947 25.2652 19 25 19Z" fill="#04009A"/>
<path d="M23 28H21C20.7348 28 20.4804 27.8946 20.2929 27.7071C20.1054 27.5196 20 27.2652 20 27C20 26.7348 20.1054 26.4804 20.2929 26.2929C20.4804 26.1054 20.7348 26 21 26H23C23.2652 26 23.5196 25.8946 23.7071 25.7071C23.8946 25.5196 24 25.2652 24 25V22C24 21.7348 24.1054 21.4804 24.2929 21.2929C24.4804 21.1054 24.7348 21 25 21C25.2652 21 25.5196 21.1054 25.7071 21.2929C25.8946 21.4804 26 21.7348 26 22V25C26 25.7956 25.6839 26.5587 25.1213 27.1213C24.5587 27.6839 23.7956 28 23 28Z" fill="#04009A"/>
<path d="M20 12H15C14.7348 12 14.4804 11.8946 14.2929 11.7071C14.1054 11.5196 14 11.2652 14 11V6C14 5.73478 14.1054 5.48043 14.2929 5.29289C14.4804 5.10536 14.7348 5 15 5C15.2652 5 15.5196 5.10536 15.7071 5.29289C15.8946 5.48043 16 5.73478 16 6V10H20C20.2652 10 20.5196 10.1054 20.7071 10.2929C20.8946 10.4804 21 10.7348 21 11C21 11.2652 20.8946 11.5196 20.7071 11.7071C20.5196 11.8946 20.2652 12 20 12Z" fill="#04009A"/>
<path d="M9.99992 22.9999C9.73472 22.9999 9.48041 22.8945 9.29292 22.7069L6.29292 19.7069C6.11076 19.5183 6.00997 19.2657 6.01224 19.0035C6.01452 18.7413 6.11969 18.4905 6.3051 18.3051C6.49051 18.1197 6.74132 18.0145 7.00352 18.0122C7.26571 18.01 7.51832 18.1108 7.70692 18.2929L9.99992 20.5859L14.2929 16.2929C14.4815 16.1108 14.7341 16.01 14.9963 16.0122C15.2585 16.0145 15.5093 16.1197 15.6947 16.3051C15.8801 16.4905 15.9853 16.7413 15.9876 17.0035C15.9899 17.2657 15.8891 17.5183 15.7069 17.7069L10.7069 22.7069C10.5194 22.8945 10.2651 22.9999 9.99992 22.9999Z" fill="#77ACF1"/>
</svg>
