<svg width="30" height="32" viewBox="0 0 30 32" fill="none" xmlns="http://www.w3.org/2000/svg">
<path d="M25.0001 31.9999H10.0001C9.73488 31.9999 9.48053 31.8946 9.29299 31.707C9.10546 31.5195 9.0001 31.2651 9.0001 30.9999V27.9999H7.0001C6.20445 27.9999 5.44139 27.6839 4.87878 27.1212C4.31617 26.5586 4.0001 25.7956 4.0001 24.9999V21.6179L0.553101 19.8999C0.426137 19.8365 0.314116 19.7469 0.224484 19.6368C0.134852 19.5268 0.0696616 19.399 0.0332449 19.2618C-0.00317189 19.1247 -0.00998066 18.9814 0.0132709 18.8414C0.0365224 18.7014 0.0893017 18.5679 0.168101 18.4499L4.0001 12.6909C4.06245 9.96601 4.98002 7.32967 6.623 5.1549C8.26599 2.98012 10.5512 1.377 13.1554 0.57235C15.7595 -0.232303 18.5507 -0.197756 21.1342 0.671104C23.7176 1.53996 25.9624 3.19915 27.5511 5.41393C27.6281 5.52036 27.6833 5.64091 27.7137 5.7687C27.744 5.89648 27.7489 6.02899 27.7281 6.15867C27.7072 6.28835 27.661 6.41265 27.5922 6.52448C27.5233 6.63631 27.433 6.73347 27.3266 6.81043C27.2202 6.88738 27.0996 6.94262 26.9718 6.97298C26.844 7.00335 26.7115 7.00825 26.5819 6.9874C26.4522 6.96655 26.3279 6.92037 26.216 6.85148C26.1042 6.7826 26.0071 6.69236 25.9301 6.58593C24.5715 4.69707 22.649 3.28765 20.4389 2.56027C18.2288 1.8329 15.845 1.82504 13.6302 2.53783C11.4154 3.25062 9.48363 4.64734 8.11263 6.5272C6.74162 8.40706 6.00201 10.6732 6.0001 12.9999C5.99979 13.1974 5.94136 13.3904 5.8321 13.5549L2.4601 18.6119L5.4471 20.1049C5.61333 20.188 5.75313 20.3157 5.85081 20.4738C5.94849 20.6319 6.00019 20.8141 6.0001 20.9999V24.9999C6.0001 25.2651 6.10546 25.5195 6.29299 25.707C6.48053 25.8946 6.73489 25.9999 7.0001 25.9999H10.0001C10.2653 25.9999 10.5197 26.1053 10.7072 26.2928C10.8947 26.4804 11.0001 26.7347 11.0001 26.9999V29.9999H24.0001V27.9659C23.9588 24.6968 24.8037 21.4774 26.4451 18.6499C27.6638 16.6114 28.19 14.2333 27.9451 11.8709C27.8923 11.3242 27.7963 10.7825 27.6581 10.2509C27.5983 9.99643 27.6405 9.72861 27.7757 9.50486C27.9109 9.2811 28.1284 9.11919 28.3815 9.05382C28.6346 8.98844 28.9033 9.0248 29.13 9.1551C29.3566 9.2854 29.5232 9.49928 29.5941 9.75093C29.7577 10.3835 29.872 11.0277 29.9361 11.6779C30.2246 14.4663 29.6018 17.2732 28.1611 19.6779C26.7056 22.1948 25.9589 25.0588 26.0001 27.9659V30.9999C26.0001 31.2651 25.8947 31.5195 25.7072 31.707C25.5197 31.8946 25.2653 31.9999 25.0001 31.9999Z" fill="#04009A"/>
<path d="M12 28H10C9.73478 28 9.48043 27.8946 9.29289 27.7071C9.10536 27.5196 9 27.2652 9 27C9 26.7348 9.10536 26.4804 9.29289 26.2929C9.48043 26.1054 9.73478 26 10 26H12C12.2652 26 12.5196 26.1054 12.7071 26.2929C12.8946 26.4804 13 26.7348 13 27C13 27.2652 12.8946 27.5196 12.7071 27.7071C12.5196 27.8946 12.2652 28 12 28Z" fill="#04009A"/>
<path d="M18.0721 19H15.9281C15.4367 19.0002 14.9636 18.813 14.6054 18.4765C14.2471 18.14 14.0307 17.6795 14.0001 17.189C13.561 17.4081 13.0547 17.4513 12.5848 17.3099C12.1148 17.1685 11.7165 16.853 11.4711 16.428L10.4001 14.572C10.1559 14.1463 10.0828 13.6437 10.1955 13.1661C10.3082 12.6884 10.5984 12.2716 11.0071 12C10.5984 11.7284 10.3082 11.3116 10.1955 10.8339C10.0828 10.3563 10.1559 9.85367 10.4001 9.428L11.4721 7.572C11.7175 7.14721 12.1156 6.83198 12.5854 6.69058C13.0551 6.54917 13.5611 6.59224 14.0001 6.811C14.0307 6.32047 14.2471 5.86003 14.6054 5.52354C14.9636 5.18705 15.4367 4.99982 15.9281 5H18.0721C18.5638 4.99934 19.0371 5.18641 19.3954 5.523C19.7538 5.85959 19.9701 6.32029 20.0001 6.811C20.4396 6.59173 20.9461 6.54848 21.4163 6.69011C21.8865 6.83173 22.2849 7.14753 22.5301 7.573L23.6001 9.428C23.8444 9.85367 23.9175 10.3563 23.8048 10.8339C23.6921 11.3116 23.4019 11.7284 22.9931 12C23.4015 12.2717 23.6913 12.6885 23.8038 13.1658C23.9163 13.6432 23.8432 14.1455 23.5991 14.571L22.5261 16.428C22.2806 16.8531 21.8821 17.1686 21.412 17.31C20.9418 17.4514 20.4355 17.4081 19.9961 17.189C19.9661 17.679 19.7504 18.1391 19.3929 18.4756C19.0354 18.8121 18.5631 18.9996 18.0721 19ZM16.0001 17H18.0001C18.0123 16.6739 18.107 16.3563 18.2754 16.0768C18.4437 15.7972 18.6802 15.565 18.9627 15.4018C19.2453 15.2385 19.5646 15.1496 19.8908 15.1434C20.2171 15.1371 20.5396 15.2137 20.8281 15.366L21.8281 13.633C21.5517 13.4595 21.3238 13.2187 21.1659 12.933C21.0079 12.6474 20.9251 12.3264 20.9251 12C20.9251 11.6736 21.0079 11.3526 21.1659 11.067C21.3238 10.7814 21.5517 10.5405 21.8281 10.367L20.8281 8.634C20.5396 8.7863 20.2171 8.86291 19.8908 8.85665C19.5646 8.8504 19.2453 8.76149 18.9627 8.59825C18.6802 8.435 18.4437 8.20276 18.2754 7.92324C18.107 7.64373 18.0123 7.32607 18.0001 7H16.0001C15.9878 7.32599 15.893 7.64352 15.7246 7.9229C15.5562 8.20229 15.3196 8.43439 15.0371 8.59752C14.7546 8.76065 14.4354 8.84947 14.1092 8.85568C13.7831 8.86188 13.4606 8.78527 13.1721 8.633L12.1721 10.367C12.4486 10.5405 12.6765 10.7814 12.8344 11.067C12.9924 11.3526 13.0752 11.6736 13.0752 12C13.0752 12.3264 12.9924 12.6474 12.8344 12.933C12.6765 13.2187 12.4486 13.4595 12.1721 13.633L13.1721 15.367C13.4606 15.2147 13.7831 15.1381 14.1092 15.1443C14.4354 15.1505 14.7546 15.2394 15.0371 15.4025C15.3196 15.5656 15.5562 15.7977 15.7246 16.0771C15.893 16.3565 15.9878 16.674 16.0001 17Z" fill="#77ACF1"/>
<path d="M17 14C16.6044 14 16.2178 13.8827 15.8889 13.6629C15.56 13.4432 15.3036 13.1308 15.1522 12.7654C15.0009 12.3999 14.9613 11.9978 15.0384 11.6098C15.1156 11.2219 15.3061 10.8655 15.5858 10.5858C15.8655 10.3061 16.2219 10.1156 16.6098 10.0384C16.9978 9.96126 17.3999 10.0009 17.7654 10.1522C18.1308 10.3036 18.4432 10.56 18.6629 10.8889C18.8827 11.2178 19 11.6044 19 12C19 12.5304 18.7893 13.0391 18.4142 13.4142C18.0391 13.7893 17.5304 14 17 14Z" fill="#77ACF1"/>
</svg>
