<svg width="28" height="32" viewBox="0 0 28 32" fill="none" xmlns="http://www.w3.org/2000/svg">
<path d="M15 32H13C12.2044 32 11.4413 31.6839 10.8787 31.1213C10.3161 30.5587 10 29.7956 10 29V17C10 16.2044 10.3161 15.4413 10.8787 14.8787C11.4413 14.3161 12.2044 14 13 14H15C15.7956 14 16.5587 14.3161 17.1213 14.8787C17.6839 15.4413 18 16.2044 18 17V23C18 23.2652 17.8946 23.5196 17.7071 23.7071C17.5196 23.8946 17.2652 24 17 24C16.7348 24 16.4804 23.8946 16.2929 23.7071C16.1054 23.5196 16 23.2652 16 23V17C16 16.7348 15.8946 16.4804 15.7071 16.2929C15.5196 16.1054 15.2652 16 15 16H13C12.7348 16 12.4804 16.1054 12.2929 16.2929C12.1054 16.4804 12 16.7348 12 17V29C12 29.2652 12.1054 29.5196 12.2929 29.7071C12.4804 29.8946 12.7348 30 13 30H15C15.2652 30 15.5196 29.8946 15.7071 29.7071C15.8946 29.5196 16 29.2652 16 29V27C16 26.7348 16.1054 26.4804 16.2929 26.2929C16.4804 26.1054 16.7348 26 17 26C17.2652 26 17.5196 26.1054 17.7071 26.2929C17.8946 26.4804 18 26.7348 18 27V29C18 29.7956 17.6839 30.5587 17.1213 31.1213C16.5587 31.6839 15.7956 32 15 32Z" fill="#04009A"/>
<path d="M5 32H3C2.20435 32 1.44129 31.6839 0.87868 31.1213C0.316071 30.5587 0 29.7956 0 29V23C0 22.2044 0.316071 21.4413 0.87868 20.8787C1.44129 20.3161 2.20435 20 3 20H5C5.79565 20 6.55871 20.3161 7.12132 20.8787C7.68393 21.4413 8 22.2044 8 23V29C8 29.7956 7.68393 30.5587 7.12132 31.1213C6.55871 31.6839 5.79565 32 5 32ZM3 22C2.73478 22 2.48043 22.1054 2.29289 22.2929C2.10536 22.4804 2 22.7348 2 23V29C2 29.2652 2.10536 29.5196 2.29289 29.7071C2.48043 29.8946 2.73478 30 3 30H5C5.26522 30 5.51957 29.8946 5.70711 29.7071C5.89464 29.5196 6 29.2652 6 29V23C6 22.7348 5.89464 22.4804 5.70711 22.2929C5.51957 22.1054 5.26522 22 5 22H3Z" fill="#04009A"/>
<path d="M25 32H23C22.2044 32 21.4413 31.6839 20.8787 31.1213C20.3161 30.5587 20 29.7956 20 29V13C20 12.2044 20.3161 11.4413 20.8787 10.8787C21.4413 10.3161 22.2044 10 23 10H25C25.7956 10 26.5587 10.3161 27.1213 10.8787C27.6839 11.4413 28 12.2044 28 13V17C28 17.2652 27.8946 17.5196 27.7071 17.7071C27.5196 17.8946 27.2652 18 27 18C26.7348 18 26.4804 17.8946 26.2929 17.7071C26.1054 17.5196 26 17.2652 26 17V13C26 12.7348 25.8946 12.4804 25.7071 12.2929C25.5196 12.1054 25.2652 12 25 12H23C22.7348 12 22.4804 12.1054 22.2929 12.2929C22.1054 12.4804 22 12.7348 22 13V29C22 29.2652 22.1054 29.5196 22.2929 29.7071C22.4804 29.8946 22.7348 30 23 30H25C25.2652 30 25.5196 29.8946 25.7071 29.7071C25.8946 29.5196 26 29.2652 26 29V21C26 20.7348 26.1054 20.4804 26.2929 20.2929C26.4804 20.1054 26.7348 20 27 20C27.2652 20 27.5196 20.1054 27.7071 20.2929C27.8946 20.4804 28 20.7348 28 21V29C28 29.7956 27.6839 30.5587 27.1213 31.1213C26.5587 31.6839 25.7956 32 25 32Z" fill="#04009A"/>
<path d="M4 16C3.40666 16 2.82664 15.8241 2.33329 15.4944C1.83994 15.1648 1.45543 14.6962 1.22836 14.1481C1.0013 13.5999 0.94189 12.9967 1.05765 12.4147C1.1734 11.8328 1.45912 11.2982 1.87868 10.8787C2.29824 10.4591 2.83279 10.1734 3.41473 10.0576C3.99667 9.94189 4.59987 10.0013 5.14805 10.2284C5.69623 10.4554 6.16477 10.8399 6.49441 11.3333C6.82405 11.8266 7 12.4067 7 13C7 13.7957 6.68393 14.5587 6.12132 15.1213C5.55871 15.6839 4.79565 16 4 16ZM4 12C3.80222 12 3.60888 12.0587 3.44443 12.1685C3.27998 12.2784 3.15181 12.4346 3.07612 12.6173C3.00043 12.8 2.98063 13.0011 3.01922 13.1951C3.0578 13.3891 3.15304 13.5673 3.29289 13.7071C3.43275 13.847 3.61093 13.9422 3.80491 13.9808C3.99889 14.0194 4.19996 13.9996 4.38268 13.9239C4.56541 13.8482 4.72159 13.72 4.83147 13.5556C4.94135 13.3911 5 13.1978 5 13C5 12.7348 4.89464 12.4804 4.70711 12.2929C4.51957 12.1054 4.26522 12 4 12Z" fill="#77ACF1"/>
<path d="M14 10C13.4067 10 12.8266 9.82405 12.3333 9.49441C11.8399 9.16477 11.4554 8.69623 11.2284 8.14805C11.0013 7.59987 10.9419 6.99667 11.0576 6.41473C11.1734 5.83279 11.4591 5.29824 11.8787 4.87868C12.2982 4.45912 12.8328 4.1734 13.4147 4.05765C13.9967 3.94189 14.5999 4.0013 15.1481 4.22836C15.6962 4.45543 16.1648 4.83994 16.4944 5.33329C16.8241 5.82664 17 6.40666 17 7C17 7.79565 16.6839 8.55871 16.1213 9.12132C15.5587 9.68393 14.7957 10 14 10ZM14 6C13.8022 6 13.6089 6.05865 13.4444 6.16853C13.28 6.27841 13.1518 6.43459 13.0761 6.61732C13.0004 6.80004 12.9806 7.00111 13.0192 7.19509C13.0578 7.38907 13.153 7.56726 13.2929 7.70711C13.4327 7.84696 13.6109 7.9422 13.8049 7.98079C13.9989 8.01937 14.2 7.99957 14.3827 7.92388C14.5654 7.84819 14.7216 7.72002 14.8315 7.55557C14.9414 7.39112 15 7.19778 15 7C15 6.73478 14.8946 6.48043 14.7071 6.29289C14.5196 6.10536 14.2652 6 14 6Z" fill="#77ACF1"/>
<path d="M24 6C23.4067 6 22.8266 5.82405 22.3333 5.49441C21.8399 5.16477 21.4554 4.69623 21.2284 4.14805C21.0013 3.59987 20.9419 2.99667 21.0576 2.41473C21.1734 1.83279 21.4591 1.29824 21.8787 0.878681C22.2982 0.459123 22.8328 0.173401 23.4147 0.0576455C23.9967 -0.0581102 24.5999 0.00129986 25.1481 0.228363C25.6962 0.455426 26.1648 0.839943 26.4944 1.33329C26.8241 1.82664 27 2.40666 27 3C27 3.79565 26.6839 4.55871 26.1213 5.12132C25.5587 5.68393 24.7957 6 24 6ZM24 2C23.8022 2 23.6089 2.05865 23.4444 2.16853C23.28 2.27841 23.1518 2.43459 23.0761 2.61732C23.0004 2.80004 22.9806 3.00111 23.0192 3.19509C23.0578 3.38907 23.153 3.56726 23.2929 3.70711C23.4327 3.84696 23.6109 3.9422 23.8049 3.98079C23.9989 4.01937 24.2 3.99957 24.3827 3.92388C24.5654 3.84819 24.7216 3.72002 24.8315 3.55557C24.9414 3.39112 25 3.19778 25 3C25 2.73478 24.8946 2.48043 24.7071 2.29289C24.5196 2.10536 24.2652 2 24 2Z" fill="#77ACF1"/>
<path d="M5.71098 12.9698C5.49243 12.9692 5.28008 12.8971 5.10643 12.7644C4.93278 12.6317 4.80738 12.4457 4.74942 12.235C4.69147 12.0243 4.70414 11.8003 4.78551 11.5975C4.86688 11.3947 5.01246 11.2241 5.19998 11.1118L11.78 7.17181C12.0064 7.05532 12.2687 7.0296 12.5135 7.09989C12.7582 7.17019 12.9669 7.33119 13.097 7.55008C13.2272 7.76897 13.2689 8.02924 13.2137 8.27782C13.1585 8.5264 13.0105 8.74456 12.8 8.8878L6.21998 12.8278C6.06612 12.9199 5.89031 12.969 5.71098 12.9698Z" fill="#77ACF1"/>
<path d="M15.85 7.26019C15.6174 7.26041 15.392 7.17953 15.2126 7.03148C15.0332 6.88343 14.9111 6.67747 14.8671 6.44906C14.8232 6.22064 14.8603 5.98406 14.9719 5.78002C15.0836 5.57599 15.263 5.41727 15.479 5.33119L21.779 2.81219C21.9014 2.76105 22.0328 2.73476 22.1654 2.73486C22.2981 2.73497 22.4294 2.76146 22.5517 2.8128C22.674 2.86413 22.7848 2.93929 22.8778 3.03389C22.9708 3.12849 23.044 3.24064 23.0932 3.36382C23.1425 3.48699 23.1667 3.61873 23.1645 3.75135C23.1623 3.88398 23.1338 4.01484 23.0805 4.13633C23.0273 4.25781 22.9504 4.36749 22.8543 4.45897C22.7583 4.55046 22.645 4.62192 22.521 4.66919L16.221 7.18819C16.1032 7.23586 15.9772 7.26031 15.85 7.26019Z" fill="#77ACF1"/>
</svg>
