<svg width="32" height="30" viewBox="0 0 32 30" fill="none" xmlns="http://www.w3.org/2000/svg">
<path d="M29 5H26C25.7348 5 25.4804 5.10536 25.2929 5.29289C25.1054 5.48043 25 5.73478 25 6C25 6.26522 25.1054 6.51957 25.2929 6.70711C25.4804 6.89464 25.7348 7 26 7H29C29.2652 7 29.5196 7.10536 29.7071 7.29289C29.8947 7.48043 30 7.73478 30 8V13.171C30.0001 13.3025 29.9743 13.4327 29.924 13.5542C29.8737 13.6757 29.8 13.786 29.707 13.879L26.879 16.707C26.7861 16.8 26.6757 16.8737 26.5542 16.924C26.4327 16.9743 26.3025 17.0001 26.171 17H5.82902C5.69754 17.0001 5.56733 16.9743 5.44584 16.924C5.32435 16.8737 5.21397 16.8 5.12102 16.707L2.29302 13.879C2.20003 13.786 2.12629 13.6757 2.07601 13.5542C2.02574 13.4327 1.99991 13.3025 2.00002 13.171V8C2.00002 7.73478 2.10537 7.48043 2.29291 7.29289C2.48044 7.10536 2.7348 7 3.00002 7H22C22.2652 7 22.5196 6.89464 22.7071 6.70711C22.8947 6.51957 23 6.26522 23 6V3C23 2.20435 22.6839 1.44129 22.1213 0.87868C21.5587 0.31607 20.7957 0 20 0H12C11.2044 0 10.4413 0.31607 9.87869 0.87868C9.31609 1.44129 9.00002 2.20435 9.00002 3V5H3.00002C2.20437 5 1.4413 5.31607 0.878695 5.87868C0.316086 6.44129 1.50863e-05 7.20435 1.50863e-05 8V13.171C-0.00123988 13.5653 0.0758134 13.9559 0.226705 14.3202C0.377596 14.6844 0.599321 15.0151 0.879015 15.293L3.70702 18.121C3.98492 18.4007 4.3156 18.6224 4.67986 18.7733C5.04413 18.9242 5.43473 19.0013 5.82902 19H26.171C26.5653 19.0013 26.9559 18.9242 27.3202 18.7733C27.6844 18.6224 28.0151 18.4007 28.293 18.121L29 17.414V27C29 27.2652 28.8947 27.5196 28.7071 27.7071C28.5196 27.8946 28.2652 28 28 28H4.00002C3.7348 28 3.48044 27.8946 3.29291 27.7071C3.10537 27.5196 3.00002 27.2652 3.00002 27V20C3.00002 19.7348 2.89466 19.4804 2.70712 19.2929C2.51959 19.1054 2.26523 19 2.00002 19C1.7348 19 1.48044 19.1054 1.29291 19.2929C1.10537 19.4804 1.00002 19.7348 1.00002 20V27C1.00239 27.7949 1.31922 28.5566 1.88132 29.1187C2.44341 29.6808 3.2051 29.9976 4.00002 30H28C28.7949 29.9976 29.5566 29.6808 30.1187 29.1187C30.6808 28.5566 30.9976 27.7949 31 27V15.414L31.121 15.293C31.4007 15.0151 31.6224 14.6844 31.7733 14.3202C31.9242 13.9559 32.0013 13.5653 32 13.171V8C32 7.20435 31.6839 6.44129 31.1213 5.87868C30.5587 5.31607 29.7957 5 29 5ZM11 3C11 2.73478 11.1054 2.48043 11.2929 2.29289C11.4804 2.10536 11.7348 2 12 2H20C20.2652 2 20.5196 2.10536 20.7071 2.29289C20.8947 2.48043 21 2.73478 21 3V5H11V3Z" fill="#04009A"/>
<path d="M10 15H8C7.44772 15 7 15.4477 7 16V20C7 20.5523 7.44772 21 8 21H10C10.5523 21 11 20.5523 11 20V16C11 15.4477 10.5523 15 10 15Z" fill="#77ACF1"/>
<path d="M24 15H22C21.4477 15 21 15.4477 21 16V20C21 20.5523 21.4477 21 22 21H24C24.5523 21 25 20.5523 25 20V16C25 15.4477 24.5523 15 24 15Z" fill="#77ACF1"/>
</svg>
