<svg width="28" height="32" viewBox="0 0 28 32" fill="none" xmlns="http://www.w3.org/2000/svg">
<path d="M27 7C27.2652 7 27.5196 6.89464 27.7071 6.70711C27.8946 6.51957 28 6.26522 28 6V3C28 2.20435 27.6839 1.44129 27.1213 0.87868C26.5587 0.31607 25.7956 0 25 0L3 0C2.20435 0 1.44129 0.31607 0.87868 0.87868C0.316071 1.44129 0 2.20435 0 3V26C0 26.7956 0.316071 27.5587 0.87868 28.1213C1.44129 28.6839 2.20435 29 3 29V31C3 31.2652 3.10536 31.5196 3.29289 31.7071C3.48043 31.8946 3.73478 32 4 32C4.26522 32 4.51957 31.8946 4.70711 31.7071C4.89464 31.5196 5 31.2652 5 31V28C5 27.7348 4.89464 27.4804 4.70711 27.2929C4.51957 27.1054 4.26522 27 4 27H3C2.73478 27 2.48043 26.8946 2.29289 26.7071C2.10536 26.5196 2 26.2652 2 26V20H26V26C26 26.2652 25.8946 26.5196 25.7071 26.7071C25.5196 26.8946 25.2652 27 25 27H8C7.73478 27 7.48043 27.1054 7.29289 27.2929C7.10536 27.4804 7 27.7348 7 28C7 28.2652 7.10536 28.5196 7.29289 28.7071C7.48043 28.8946 7.73478 29 8 29H23V31C23 31.2652 23.1054 31.5196 23.2929 31.7071C23.4804 31.8946 23.7348 32 24 32C24.2652 32 24.5196 31.8946 24.7071 31.7071C24.8946 31.5196 25 31.2652 25 31V29C25.7956 29 26.5587 28.6839 27.1213 28.1213C27.6839 27.5587 28 26.7956 28 26V10C28 9.73478 27.8946 9.48043 27.7071 9.29289C27.5196 9.10536 27.2652 9 27 9H2V3C2 2.73478 2.10536 2.48043 2.29289 2.29289C2.48043 2.10536 2.73478 2 3 2H25C25.2652 2 25.5196 2.10536 25.7071 2.29289C25.8946 2.48043 26 2.73478 26 3V6C26 6.26522 26.1054 6.51957 26.2929 6.70711C26.4804 6.89464 26.7348 7 27 7ZM26 11V18H2V11H26Z" fill="#04009A"/>
<path d="M17 25H11C10.7348 25 10.4804 24.8946 10.2929 24.7071C10.1054 24.5196 10 24.2652 10 24C10 23.7348 10.1054 23.4804 10.2929 23.2929C10.4804 23.1054 10.7348 23 11 23H17C17.2652 23 17.5196 23.1054 17.7071 23.2929C17.8946 23.4804 18 23.7348 18 24C18 24.2652 17.8946 24.5196 17.7071 24.7071C17.5196 24.8946 17.2652 25 17 25Z" fill="#77ACF1"/>
<path d="M17 16H11C10.7348 16 10.4804 15.8946 10.2929 15.7071C10.1054 15.5196 10 15.2652 10 15C10 14.7348 10.1054 14.4804 10.2929 14.2929C10.4804 14.1054 10.7348 14 11 14H17C17.2652 14 17.5196 14.1054 17.7071 14.2929C17.8946 14.4804 18 14.7348 18 15C18 15.2652 17.8946 15.5196 17.7071 15.7071C17.5196 15.8946 17.2652 16 17 16Z" fill="#77ACF1"/>
<path d="M17 7H11C10.7348 7 10.4804 6.89464 10.2929 6.70711C10.1054 6.51957 10 6.26522 10 6C10 5.73478 10.1054 5.48043 10.2929 5.29289C10.4804 5.10536 10.7348 5 11 5H17C17.2652 5 17.5196 5.10536 17.7071 5.29289C17.8946 5.48043 18 5.73478 18 6C18 6.26522 17.8946 6.51957 17.7071 6.70711C17.5196 6.89464 17.2652 7 17 7Z" fill="#77ACF1"/>
</svg>
