<svg width="24" height="32" viewBox="0 0 24 32" fill="none" xmlns="http://www.w3.org/2000/svg">
<path d="M23 22C22.7348 22 22.4804 22.1054 22.2929 22.2929C22.1054 22.4804 22 22.7348 22 23V29C22 29.2652 21.8946 29.5196 21.7071 29.7071C21.5196 29.8946 21.2652 30 21 30H3C2.73478 30 2.48043 29.8946 2.29289 29.7071C2.10536 29.5196 2 29.2652 2 29V9C2 8.73478 1.89464 8.48043 1.70711 8.29289C1.51957 8.10536 1.26522 8 1 8C0.734784 8 0.48043 8.10536 0.292893 8.29289C0.105357 8.48043 0 8.73478 0 9V29C0 29.7956 0.316071 30.5587 0.87868 31.1213C1.44129 31.6839 2.20435 32 3 32H21C21.7956 32 22.5587 31.6839 23.1213 31.1213C23.6839 30.5587 24 29.7956 24 29V23C24 22.7348 23.8946 22.4804 23.7071 22.2929C23.5196 22.1054 23.2652 22 23 22Z" fill="#04009A"/>
<path d="M21 0H3C2.20435 0 1.44129 0.31607 0.87868 0.87868C0.316071 1.44129 0 2.20435 0 3V5C0 5.26522 0.105357 5.51957 0.292893 5.70711C0.48043 5.89464 0.734784 6 1 6C1.26522 6 1.51957 5.89464 1.70711 5.70711C1.89464 5.51957 2 5.26522 2 5V3C2 2.73478 2.10536 2.48043 2.29289 2.29289C2.48043 2.10536 2.73478 2 3 2H21C21.2652 2 21.5196 2.10536 21.7071 2.29289C21.8946 2.48043 22 2.73478 22 3V19C22 19.2652 22.1054 19.5196 22.2929 19.7071C22.4804 19.8946 22.7348 20 23 20C23.2652 20 23.5196 19.8946 23.7071 19.7071C23.8946 19.5196 24 19.2652 24 19V3C24 2.20435 23.6839 1.44129 23.1213 0.87868C22.5587 0.31607 21.7956 0 21 0V0Z" fill="#04009A"/>
<path d="M20 5C20 4.73478 19.8946 4.48043 19.7071 4.29289C19.5196 4.10536 19.2652 4 19 4H5C4.73478 4 4.48043 4.10536 4.29289 4.29289C4.10536 4.48043 4 4.73478 4 5V11C4 11.2652 4.10536 11.5196 4.29289 11.7071C4.48043 11.8946 4.73478 12 5 12H19C19.2652 12 19.5196 11.8946 19.7071 11.7071C19.8946 11.5196 20 11.2652 20 11V5ZM18 10H6V6H18V10Z" fill="#04009A"/>
<path d="M5 16H7C7.26522 16 7.51957 15.8946 7.70711 15.7071C7.89464 15.5196 8 15.2652 8 15C8 14.7348 7.89464 14.4804 7.70711 14.2929C7.51957 14.1054 7.26522 14 7 14H5C4.73478 14 4.48043 14.1054 4.29289 14.2929C4.10536 14.4804 4 14.7348 4 15C4 15.2652 4.10536 15.5196 4.29289 15.7071C4.48043 15.8946 4.73478 16 5 16Z" fill="#04009A"/>
<path d="M13 14H11C10.7348 14 10.4804 14.1054 10.2929 14.2929C10.1054 14.4804 10 14.7348 10 15C10 15.2652 10.1054 15.5196 10.2929 15.7071C10.4804 15.8946 10.7348 16 11 16H13C13.2652 16 13.5196 15.8946 13.7071 15.7071C13.8946 15.5196 14 15.2652 14 15C14 14.7348 13.8946 14.4804 13.7071 14.2929C13.5196 14.1054 13.2652 14 13 14Z" fill="#04009A"/>
<path d="M19 14H17C16.7348 14 16.4804 14.1054 16.2929 14.2929C16.1054 14.4804 16 14.7348 16 15C16 15.2652 16.1054 15.5196 16.2929 15.7071C16.4804 15.8946 16.7348 16 17 16H19C19.2652 16 19.5196 15.8946 19.7071 15.7071C19.8946 15.5196 20 15.2652 20 15C20 14.7348 19.8946 14.4804 19.7071 14.2929C19.5196 14.1054 19.2652 14 19 14Z" fill="#04009A"/>
<path d="M5 20H7C7.26522 20 7.51957 19.8946 7.70711 19.7071C7.89464 19.5196 8 19.2652 8 19C8 18.7348 7.89464 18.4804 7.70711 18.2929C7.51957 18.1054 7.26522 18 7 18H5C4.73478 18 4.48043 18.1054 4.29289 18.2929C4.10536 18.4804 4 18.7348 4 19C4 19.2652 4.10536 19.5196 4.29289 19.7071C4.48043 19.8946 4.73478 20 5 20Z" fill="#04009A"/>
<path d="M13 18H11C10.7348 18 10.4804 18.1054 10.2929 18.2929C10.1054 18.4804 10 18.7348 10 19C10 19.2652 10.1054 19.5196 10.2929 19.7071C10.4804 19.8946 10.7348 20 11 20H13C13.2652 20 13.5196 19.8946 13.7071 19.7071C13.8946 19.5196 14 19.2652 14 19C14 18.7348 13.8946 18.4804 13.7071 18.2929C13.5196 18.1054 13.2652 18 13 18Z" fill="#04009A"/>
<path d="M19 18H17C16.7348 18 16.4804 18.1054 16.2929 18.2929C16.1054 18.4804 16 18.7348 16 19C16 19.2652 16.1054 19.5196 16.2929 19.7071C16.4804 19.8946 16.7348 20 17 20H19C19.2652 20 19.5196 19.8946 19.7071 19.7071C19.8946 19.5196 20 19.2652 20 19C20 18.7348 19.8946 18.4804 19.7071 18.2929C19.5196 18.1054 19.2652 18 19 18Z" fill="#04009A"/>
<path d="M5 24H7C7.26522 24 7.51957 23.8946 7.70711 23.7071C7.89464 23.5196 8 23.2652 8 23C8 22.7348 7.89464 22.4804 7.70711 22.2929C7.51957 22.1054 7.26522 22 7 22H5C4.73478 22 4.48043 22.1054 4.29289 22.2929C4.10536 22.4804 4 22.7348 4 23C4 23.2652 4.10536 23.5196 4.29289 23.7071C4.48043 23.8946 4.73478 24 5 24Z" fill="#04009A"/>
<path d="M13 22H11C10.7348 22 10.4804 22.1054 10.2929 22.2929C10.1054 22.4804 10 22.7348 10 23C10 23.2652 10.1054 23.5196 10.2929 23.7071C10.4804 23.8946 10.7348 24 11 24H13C13.2652 24 13.5196 23.8946 13.7071 23.7071C13.8946 23.5196 14 23.2652 14 23C14 22.7348 13.8946 22.4804 13.7071 22.2929C13.5196 22.1054 13.2652 22 13 22Z" fill="#04009A"/>
<path d="M5 28H7C7.26522 28 7.51957 27.8946 7.70711 27.7071C7.89464 27.5196 8 27.2652 8 27C8 26.7348 7.89464 26.4804 7.70711 26.2929C7.51957 26.1054 7.26522 26 7 26H5C4.73478 26 4.48043 26.1054 4.29289 26.2929C4.10536 26.4804 4 26.7348 4 27C4 27.2652 4.10536 27.5196 4.29289 27.7071C4.48043 27.8946 4.73478 28 5 28Z" fill="#04009A"/>
<path d="M13 26H11C10.7348 26 10.4804 26.1054 10.2929 26.2929C10.1054 26.4804 10 26.7348 10 27C10 27.2652 10.1054 27.5196 10.2929 27.7071C10.4804 27.8946 10.7348 28 11 28H13C13.2652 28 13.5196 27.8946 13.7071 27.7071C13.8946 27.5196 14 27.2652 14 27C14 26.7348 13.8946 26.4804 13.7071 26.2929C13.5196 26.1054 13.2652 26 13 26Z" fill="#04009A"/>
<path d="M19 22H17C16.4477 22 16 22.4477 16 23V27C16 27.5523 16.4477 28 17 28H19C19.5523 28 20 27.5523 20 27V23C20 22.4477 19.5523 22 19 22Z" fill="#77ACF1"/>
</svg>
