<svg width="32" height="32" viewBox="0 0 32 32" fill="none" xmlns="http://www.w3.org/2000/svg">
<path d="M16 32.0003C13.7192 31.9985 11.4651 31.5096 9.38862 30.5662C7.31213 29.6227 5.46115 28.2465 3.9596 26.5298C2.45805 24.813 1.34059 22.7953 0.682026 20.6117C0.0234609 18.4281 -0.161009 16.1289 0.140967 13.8683C0.175976 13.6053 0.314012 13.367 0.524709 13.2058C0.735406 13.0446 1.0015 12.9737 1.26447 13.0088C1.52743 13.0438 1.76571 13.1818 1.9269 13.3925C2.08809 13.6032 2.15898 13.8693 2.12397 14.1323C2.0415 14.7515 2.00007 15.3755 1.99997 16.0003C1.99797 19.2182 3.10457 22.3386 5.13354 24.8362C7.1625 27.3339 9.98995 29.0564 13.14 29.7137C16.2901 30.3711 19.5704 29.9232 22.429 28.4455C25.2876 26.9678 27.5498 24.5504 28.835 21.6003C28.887 21.4792 28.9625 21.3697 29.0571 21.2779C29.1516 21.1861 29.2634 21.1139 29.3859 21.0655C29.5084 21.017 29.6393 20.9933 29.7711 20.9956C29.9028 20.9979 30.0328 21.0262 30.1536 21.0789C30.2743 21.1316 30.3835 21.2077 30.4748 21.3027C30.5661 21.3977 30.6377 21.5099 30.6855 21.6327C30.7333 21.7554 30.7563 21.8865 30.7533 22.0182C30.7503 22.1499 30.7213 22.2798 30.668 22.4003C29.4217 25.2536 27.3703 27.6816 24.765 29.3867C22.1597 31.0918 19.1136 32.0001 16 32.0003Z" fill="#04009A"/>
<path d="M30.8689 19C30.8241 19 30.7794 18.997 30.7349 18.991C30.4721 18.956 30.234 18.818 30.0729 18.6074C29.9119 18.3968 29.841 18.1309 29.8759 17.868C29.9584 17.2488 29.9998 16.6248 29.9999 16C30.0019 12.7821 28.8953 9.66173 26.8664 7.16407C24.8374 4.6664 22.01 2.94394 18.8599 2.28657C15.7098 1.62921 12.4295 2.07708 9.57091 3.5548C6.71235 5.03253 4.45012 7.44989 3.16495 10.4C3.11288 10.5211 3.0374 10.6306 2.94285 10.7224C2.8483 10.8142 2.73655 10.8864 2.61401 10.9348C2.49148 10.9833 2.36058 11.007 2.22883 11.0047C2.09709 11.0024 1.9671 10.9741 1.84633 10.9214C1.72557 10.8687 1.61641 10.7926 1.52513 10.6976C1.43386 10.6026 1.36226 10.4904 1.31446 10.3676C1.26666 10.2448 1.2436 10.1138 1.2466 9.98209C1.2496 9.85036 1.2786 9.72052 1.33195 9.60004C2.87273 6.05776 5.64301 3.19249 9.13136 1.53322C12.6197 -0.126058 16.5906 -0.467301 20.3109 0.572485C24.0312 1.61227 27.2497 3.96288 29.3722 7.19034C31.4948 10.4178 32.378 14.3042 31.8589 18.132C31.827 18.3721 31.709 18.5923 31.527 18.752C31.3449 18.9116 31.1111 18.9997 30.8689 19Z" fill="#04009A"/>
<path d="M16.0199 6C15.7547 6.00133 15.4998 5.89724 15.3113 5.71064C15.1229 5.52404 15.0162 5.27022 15.0149 5.005C15.0136 4.73978 15.1177 4.4849 15.3043 4.29643C15.4909 4.10795 15.7447 4.00133 16.0099 4H16.0199C16.2851 4 16.5395 4.10536 16.727 4.29289C16.9145 4.48043 17.0199 4.73478 17.0199 5C17.0199 5.26522 16.9145 5.51957 16.727 5.70711C16.5395 5.89464 16.2851 6 16.0199 6Z" fill="#04009A"/>
<path d="M23.7999 9.22217C23.6686 9.22282 23.5384 9.19761 23.4169 9.14796C23.2953 9.09831 23.1847 9.0252 23.0914 8.93281C22.9029 8.74621 22.7963 8.49238 22.7949 8.22717C22.7936 7.96195 22.8977 7.70707 23.0843 7.5186C23.2709 7.33012 23.5247 7.22349 23.7899 7.22217H23.7999C24.0652 7.22217 24.3195 7.32752 24.507 7.51506C24.6946 7.7026 24.7999 7.95695 24.7999 8.22217C24.7999 8.48738 24.6946 8.74174 24.507 8.92927C24.3195 9.11681 24.0652 9.22217 23.7999 9.22217Z" fill="#04009A"/>
<path d="M27.0199 17C26.7547 17.0013 26.4998 16.8972 26.3113 16.7106C26.1229 16.524 26.0162 16.2702 26.0149 16.005C26.0136 15.7398 26.1177 15.4849 26.3043 15.2964C26.4909 15.108 26.7447 15.0013 27.0099 15H27.0199C27.2851 15 27.5395 15.1054 27.727 15.2929C27.9145 15.4804 28.0199 15.7348 28.0199 16C28.0199 16.2652 27.9145 16.5196 27.727 16.7071C27.5395 16.8946 27.2851 17 27.0199 17Z" fill="#04009A"/>
<path d="M23.7999 24.7778C23.6686 24.7785 23.5384 24.7533 23.4169 24.7036C23.2953 24.654 23.1847 24.5809 23.0914 24.4885C22.9029 24.3019 22.7963 24.048 22.7949 23.7828C22.7936 23.5176 22.8977 23.2627 23.0843 23.0743C23.2709 22.8858 23.5247 22.7792 23.7899 22.7778H23.7999C24.0652 22.7778 24.3195 22.8832 24.507 23.0707C24.6946 23.2583 24.7999 23.5126 24.7999 23.7778C24.7999 24.043 24.6946 24.2974 24.507 24.4849C24.3195 24.6725 24.0652 24.7778 23.7999 24.7778Z" fill="#04009A"/>
<path d="M16.0199 28C15.8886 28.0007 15.7584 27.9754 15.6368 27.9258C15.5153 27.8761 15.4047 27.803 15.3113 27.7106C15.1229 27.524 15.0162 27.2702 15.0149 27.005C15.0136 26.7398 15.1177 26.4849 15.3043 26.2964C15.4909 26.108 15.7447 26.0013 16.0099 26H16.0199C16.2851 26 16.5395 26.1054 16.727 26.2929C16.9145 26.4804 17.0199 26.7348 17.0199 27C17.0199 27.2652 16.9145 27.5196 16.727 27.7071C16.5395 27.8946 16.2851 28 16.0199 28Z" fill="#04009A"/>
<path d="M8.24209 24.7778C7.97687 24.7793 7.72194 24.6753 7.53337 24.4888C7.3448 24.3023 7.23805 24.0485 7.23659 23.7833C7.23513 23.5181 7.33909 23.2632 7.52559 23.0746C7.7121 22.886 7.96587 22.7793 8.23109 22.7778H8.24209C8.5073 22.7778 8.76166 22.8832 8.94919 23.0707C9.13673 23.2583 9.24209 23.5126 9.24209 23.7778C9.24209 24.043 9.13673 24.2974 8.94919 24.4849C8.76166 24.6725 8.5073 24.7778 8.24209 24.7778Z" fill="#04009A"/>
<path d="M5.01991 17C4.75469 17.0013 4.49981 16.8972 4.31133 16.7106C4.12286 16.524 4.01623 16.2702 4.01491 16.005C4.01358 15.7398 4.11766 15.4849 4.30426 15.2964C4.49086 15.108 4.74469 15.0013 5.00991 15H5.01991C5.28512 15 5.53948 15.1054 5.72701 15.2929C5.91455 15.4804 6.01991 15.7348 6.01991 16C6.01991 16.2652 5.91455 16.5196 5.72701 16.7071C5.53948 16.8946 5.28512 17 5.01991 17Z" fill="#04009A"/>
<path d="M8.24209 9.22217C7.97687 9.22363 7.72194 9.11967 7.53337 8.93316C7.3448 8.74666 7.23805 8.49288 7.23659 8.22767C7.23513 7.96245 7.33909 7.70752 7.52559 7.51895C7.7121 7.33038 7.96587 7.22363 8.23109 7.22217H8.24209C8.5073 7.22217 8.76166 7.32752 8.94919 7.51506C9.13673 7.7026 9.24209 7.95695 9.24209 8.22217C9.24209 8.48738 9.13673 8.74174 8.94919 8.92927C8.76166 9.11681 8.5073 9.22217 8.24209 9.22217Z" fill="#04009A"/>
<path d="M13 20C12.8023 20 12.609 19.9413 12.4446 19.8314C12.2802 19.7215 12.152 19.5654 12.0764 19.3827C12.0007 19.2 11.9809 18.9989 12.0194 18.805C12.058 18.611 12.1532 18.4329 12.293 18.293L15 15.586V9C15 8.73478 15.1054 8.48043 15.2929 8.29289C15.4805 8.10536 15.7348 8 16 8C16.2652 8 16.5196 8.10536 16.7071 8.29289C16.8947 8.48043 17 8.73478 17 9V16C17 16.2652 16.8946 16.5195 16.707 16.707L13.707 19.707C13.5195 19.8946 13.2652 19.9999 13 20Z" fill="#77ACF1"/>
</svg>
