<svg width="28" height="32" viewBox="0 0 28 32" fill="none" xmlns="http://www.w3.org/2000/svg">
<path d="M25 32H23C22.7348 32 22.4804 31.8947 22.2929 31.7071C22.1054 31.5196 22 31.2652 22 31C22 30.7348 22.1054 30.4804 22.2929 30.2929C22.4804 30.1054 22.7348 30 23 30H25C25.2652 30 25.5196 29.8947 25.7071 29.7071C25.8946 29.5196 26 29.2652 26 29V7.82901C26.0001 7.69753 25.9743 7.56732 25.924 7.44584C25.8737 7.32435 25.8 7.21397 25.707 7.12101L20.879 2.29301C20.691 2.10629 20.437 2.00105 20.172 2.00001H3C2.73478 2.00001 2.48043 2.10537 2.29289 2.29291C2.10536 2.48044 2 2.7348 2 3.00001V14C2 14.2652 1.89464 14.5196 1.70711 14.7071C1.51957 14.8947 1.26522 15 1 15C0.734784 15 0.48043 14.8947 0.292893 14.7071C0.105357 14.5196 0 14.2652 0 14V3.00001C0 2.20436 0.316071 1.4413 0.87868 0.878692C1.44129 0.316083 2.20435 1.20795e-05 3 1.20795e-05H20.172C20.5661 -0.0011104 20.9565 0.0760072 21.3206 0.226895C21.6847 0.377782 22.0152 0.599437 22.293 0.879012L27.121 5.70701C27.4005 5.98508 27.622 6.31579 27.7729 6.68002C27.9238 7.04425 28.001 7.43477 28 7.82901V29C28 29.7957 27.6839 30.5587 27.1213 31.1213C26.5587 31.6839 25.7956 32 25 32Z" fill="#04009A"/>
<path d="M19 32H3C2.20435 32 1.44129 31.6839 0.87868 31.1213C0.316071 30.5587 0 29.7956 0 29V18C0 17.7348 0.105357 17.4804 0.292893 17.2929C0.48043 17.1054 0.734784 17 1 17C1.26522 17 1.51957 17.1054 1.70711 17.2929C1.89464 17.4804 2 17.7348 2 18V29C2 29.2652 2.10536 29.5196 2.29289 29.7071C2.48043 29.8946 2.73478 30 3 30H19C19.2652 30 19.5196 30.1054 19.7071 30.2929C19.8946 30.4804 20 30.7348 20 31C20 31.2652 19.8946 31.5196 19.7071 31.7071C19.5196 31.8946 19.2652 32 19 32Z" fill="#04009A"/>
<path d="M17 10H7C6.20435 10 5.44129 9.68393 4.87868 9.12132C4.31607 8.55871 4 7.79565 4 7V1C4 0.734784 4.10536 0.48043 4.29289 0.292893C4.48043 0.105357 4.73478 0 5 0L19 0C19.2652 0 19.5196 0.105357 19.7071 0.292893C19.8946 0.48043 20 0.734784 20 1V7C20 7.79565 19.6839 8.55871 19.1213 9.12132C18.5587 9.68393 17.7956 10 17 10ZM6 2V7C6 7.26522 6.10536 7.51957 6.29289 7.70711C6.48043 7.89464 6.73478 8 7 8H17C17.2652 8 17.5196 7.89464 17.7071 7.70711C17.8946 7.51957 18 7.26522 18 7V2H6Z" fill="#04009A"/>
<path d="M19 32H5C4.73478 32 4.48043 31.8946 4.29289 31.7071C4.10536 31.5196 4 31.2652 4 31V21C4 20.2044 4.31607 19.4413 4.87868 18.8787C5.44129 18.3161 6.20435 18 7 18H17C17.7956 18 18.5587 18.3161 19.1213 18.8787C19.6839 19.4413 20 20.2044 20 21V31C20 31.2652 19.8946 31.5196 19.7071 31.7071C19.5196 31.8946 19.2652 32 19 32ZM6 30H18V21C18 20.7348 17.8946 20.4804 17.7071 20.2929C17.5196 20.1054 17.2652 20 17 20H7C6.73478 20 6.48043 20.1054 6.29289 20.2929C6.10536 20.4804 6 20.7348 6 21V30Z" fill="#04009A"/>
<path d="M15 6H14C13.7348 6 13.4804 5.89464 13.2929 5.70711C13.1054 5.51957 13 5.26522 13 5C13 4.73478 13.1054 4.48043 13.2929 4.29289C13.4804 4.10536 13.7348 4 14 4H15C15.2652 4 15.5196 4.10536 15.7071 4.29289C15.8946 4.48043 16 4.73478 16 5C16 5.26522 15.8946 5.51957 15.7071 5.70711C15.5196 5.89464 15.2652 6 15 6Z" fill="#77ACF1"/>
<path d="M15 24H9C8.73478 24 8.48043 23.8946 8.29289 23.7071C8.10536 23.5196 8 23.2652 8 23C8 22.7348 8.10536 22.4804 8.29289 22.2929C8.48043 22.1054 8.73478 22 9 22H15C15.2652 22 15.5196 22.1054 15.7071 22.2929C15.8946 22.4804 16 22.7348 16 23C16 23.2652 15.8946 23.5196 15.7071 23.7071C15.5196 23.8946 15.2652 24 15 24Z" fill="#77ACF1"/>
<path d="M15 28H9C8.73478 28 8.48043 27.8946 8.29289 27.7071C8.10536 27.5196 8 27.2652 8 27C8 26.7348 8.10536 26.4804 8.29289 26.2929C8.48043 26.1054 8.73478 26 9 26H15C15.2652 26 15.5196 26.1054 15.7071 26.2929C15.8946 26.4804 16 26.7348 16 27C16 27.2652 15.8946 27.5196 15.7071 27.7071C15.5196 27.8946 15.2652 28 15 28Z" fill="#77ACF1"/>
</svg>
