<svg width="32" height="32" viewBox="0 0 32 32" fill="none" xmlns="http://www.w3.org/2000/svg">
<path d="M29 6H3C2.20435 6 1.44129 5.68393 0.87868 5.12132C0.31607 4.55871 0 3.79565 0 3C0 2.20435 0.31607 1.44129 0.87868 0.87868C1.44129 0.31607 2.20435 0 3 0L8 0C8.26522 0 8.51957 0.105357 8.70711 0.292893C8.89464 0.48043 9 0.734784 9 1C9 1.26522 8.89464 1.51957 8.70711 1.70711C8.51957 1.89464 8.26522 2 8 2H3C2.73478 2 2.48043 2.10536 2.29289 2.29289C2.10536 2.48043 2 2.73478 2 3C2 3.26522 2.10536 3.51957 2.29289 3.70711C2.48043 3.89464 2.73478 4 3 4H29C29.2652 4 29.5196 3.89464 29.7071 3.70711C29.8946 3.51957 30 3.26522 30 3C30 2.73478 29.8946 2.48043 29.7071 2.29289C29.5196 2.10536 29.2652 2 29 2H12C11.7348 2 11.4804 1.89464 11.2929 1.70711C11.1054 1.51957 11 1.26522 11 1C11 0.734784 11.1054 0.48043 11.2929 0.292893C11.4804 0.105357 11.7348 0 12 0L29 0C29.7956 0 30.5587 0.31607 31.1213 0.87868C31.6839 1.44129 32 2.20435 32 3C32 3.79565 31.6839 4.55871 31.1213 5.12132C30.5587 5.68393 29.7956 6 29 6Z" fill="#04009A"/>
<path d="M29 30H3C2.73478 30 2.48043 29.8946 2.29289 29.7071C2.10536 29.5196 2 29.2652 2 29V5C2 4.73478 2.10536 4.48043 2.29289 4.29289C2.48043 4.10536 2.73478 4 3 4H29C29.2652 4 29.5196 4.10536 29.7071 4.29289C29.8946 4.48043 30 4.73478 30 5C30 5.26522 29.8946 5.51957 29.7071 5.70711C29.5196 5.89464 29.2652 6 29 6H4V28H28V9C28 8.73478 28.1054 8.48043 28.2929 8.29289C28.4804 8.10536 28.7348 8 29 8C29.2652 8 29.5196 8.10536 29.7071 8.29289C29.8946 8.48043 30 8.73478 30 9V29C30 29.2652 29.8946 29.5196 29.7071 29.7071C29.5196 29.8946 29.2652 30 29 30Z" fill="#04009A"/>
<path d="M16 32C15.7348 32 15.4804 31.8946 15.2929 31.7071C15.1054 31.5196 15 31.2652 15 31V29C15 28.7348 15.1054 28.4804 15.2929 28.2929C15.4804 28.1054 15.7348 28 16 28C16.2652 28 16.5196 28.1054 16.7071 28.2929C16.8946 28.4804 17 28.7348 17 29V31C17 31.2652 16.8946 31.5196 16.7071 31.7071C16.5196 31.8946 16.2652 32 16 32Z" fill="#04009A"/>
<path d="M31 30H1C0.734784 30 0.48043 29.8946 0.292893 29.7071C0.105357 29.5196 0 29.2652 0 29C0 28.7348 0.105357 28.4804 0.292893 28.2929C0.48043 28.1054 0.734784 28 1 28H31C31.2652 28 31.5196 28.1054 31.7071 28.2929C31.8946 28.4804 32 28.7348 32 29C32 29.2652 31.8946 29.5196 31.7071 29.7071C31.5196 29.8946 31.2652 30 31 30Z" fill="#04009A"/>
<path d="M16.9999 17.9999C16.7347 17.9999 16.4804 17.8945 16.2929 17.7069L11.9999 13.4139L7.70692 17.7069C7.51832 17.8891 7.26571 17.9899 7.00352 17.9876C6.74132 17.9853 6.49051 17.8801 6.3051 17.6947C6.11969 17.5093 6.01452 17.2585 6.01224 16.9963C6.00997 16.7341 6.11076 16.4815 6.29292 16.2929L11.2929 11.2929C11.4804 11.1054 11.7348 11.0001 11.9999 11.0001C12.2651 11.0001 12.5194 11.1054 12.7069 11.2929L16.9999 15.5859L23.2929 9.29292C23.4815 9.11076 23.7341 9.00997 23.9963 9.01224C24.2585 9.01452 24.5093 9.11969 24.6947 9.3051C24.8801 9.49051 24.9853 9.74132 24.9876 10.0035C24.9899 10.2657 24.8891 10.5183 24.7069 10.7069L17.7069 17.7069C17.5194 17.8945 17.2651 17.9999 16.9999 17.9999Z" fill="#77ACF1"/>
<path d="M25 13C24.7348 13 24.4804 12.8946 24.2929 12.7071C24.1054 12.5196 24 12.2652 24 12V10H22C21.7348 10 21.4804 9.89464 21.2929 9.70711C21.1054 9.51957 21 9.26522 21 9C21 8.73478 21.1054 8.48043 21.2929 8.29289C21.4804 8.10536 21.7348 8 22 8H25C25.2652 8 25.5196 8.10536 25.7071 8.29289C25.8946 8.48043 26 8.73478 26 9V12C26 12.2652 25.8946 12.5196 25.7071 12.7071C25.5196 12.8946 25.2652 13 25 13Z" fill="#77ACF1"/>
<path d="M10 22H8C7.73478 22 7.48043 21.8946 7.29289 21.7071C7.10536 21.5196 7 21.2652 7 21C7 20.7348 7.10536 20.4804 7.29289 20.2929C7.48043 20.1054 7.73478 20 8 20H10C10.2652 20 10.5196 20.1054 10.7071 20.2929C10.8946 20.4804 11 20.7348 11 21C11 21.2652 10.8946 21.5196 10.7071 21.7071C10.5196 21.8946 10.2652 22 10 22Z" fill="#77ACF1"/>
<path d="M17 22H15C14.7348 22 14.4804 21.8946 14.2929 21.7071C14.1054 21.5196 14 21.2652 14 21C14 20.7348 14.1054 20.4804 14.2929 20.2929C14.4804 20.1054 14.7348 20 15 20H17C17.2652 20 17.5196 20.1054 17.7071 20.2929C17.8946 20.4804 18 20.7348 18 21C18 21.2652 17.8946 21.5196 17.7071 21.7071C17.5196 21.8946 17.2652 22 17 22Z" fill="#77ACF1"/>
<path d="M17 26H15C14.7348 26 14.4804 25.8946 14.2929 25.7071C14.1054 25.5196 14 25.2652 14 25C14 24.7348 14.1054 24.4804 14.2929 24.2929C14.4804 24.1054 14.7348 24 15 24H17C17.2652 24 17.5196 24.1054 17.7071 24.2929C17.8946 24.4804 18 24.7348 18 25C18 25.2652 17.8946 25.5196 17.7071 25.7071C17.5196 25.8946 17.2652 26 17 26Z" fill="#77ACF1"/>
<path d="M24 22H22C21.7348 22 21.4804 21.8946 21.2929 21.7071C21.1054 21.5196 21 21.2652 21 21C21 20.7348 21.1054 20.4804 21.2929 20.2929C21.4804 20.1054 21.7348 20 22 20H24C24.2652 20 24.5196 20.1054 24.7071 20.2929C24.8946 20.4804 25 20.7348 25 21C25 21.2652 24.8946 21.5196 24.7071 21.7071C24.5196 21.8946 24.2652 22 24 22Z" fill="#77ACF1"/>
<path d="M24 26H22C21.7348 26 21.4804 25.8946 21.2929 25.7071C21.1054 25.5196 21 25.2652 21 25C21 24.7348 21.1054 24.4804 21.2929 24.2929C21.4804 24.1054 21.7348 24 22 24H24C24.2652 24 24.5196 24.1054 24.7071 24.2929C24.8946 24.4804 25 24.7348 25 25C25 25.2652 24.8946 25.5196 24.7071 25.7071C24.5196 25.8946 24.2652 26 24 26Z" fill="#77ACF1"/>
<path d="M10 26H8C7.73478 26 7.48043 25.8946 7.29289 25.7071C7.10536 25.5196 7 25.2652 7 25C7 24.7348 7.10536 24.4804 7.29289 24.2929C7.48043 24.1054 7.73478 24 8 24H10C10.2652 24 10.5196 24.1054 10.7071 24.2929C10.8946 24.4804 11 24.7348 11 25C11 25.2652 10.8946 25.5196 10.7071 25.7071C10.5196 25.8946 10.2652 26 10 26Z" fill="#77ACF1"/>
</svg>
