<svg width="32" height="32" viewBox="0 0 32 32" fill="none" xmlns="http://www.w3.org/2000/svg">
<path d="M25 26C24.0111 26 23.0444 25.7068 22.2222 25.1574C21.3999 24.6079 20.759 23.8271 20.3806 22.9134C20.0022 21.9998 19.9031 20.9945 20.0961 20.0246C20.289 19.0546 20.7652 18.1637 21.4645 17.4645C22.1637 16.7652 23.0546 16.289 24.0246 16.0961C24.9945 15.9031 25.9998 16.0022 26.9134 16.3806C27.8271 16.759 28.6079 17.3999 29.1574 18.2222C29.7068 19.0444 30 20.0111 30 21C29.9984 22.3256 29.4711 23.5964 28.5338 24.5338C27.5964 25.4711 26.3256 25.9984 25 26ZM25 18C24.4067 18 23.8266 18.1759 23.3333 18.5056C22.8399 18.8352 22.4554 19.3038 22.2284 19.852C22.0013 20.4001 21.9419 21.0033 22.0576 21.5853C22.1734 22.1672 22.4591 22.7018 22.8787 23.1213C23.2982 23.5409 23.8328 23.8266 24.4147 23.9424C24.9967 24.0581 25.5999 23.9987 26.1481 23.7716C26.6962 23.5446 27.1648 23.1601 27.4944 22.6667C27.8241 22.1734 28 21.5933 28 21C28 20.2044 27.6839 19.4413 27.1213 18.8787C26.5587 18.3161 25.7957 18 25 18Z" fill="#04009A"/>
<path d="M22 32.0002H20C19.7695 32.0002 19.546 31.9206 19.3674 31.7748C19.1889 31.6291 19.0661 31.4261 19.02 31.2002L18.02 26.2002C17.9769 25.985 18.0057 25.7617 18.102 25.5645C18.1983 25.3674 18.3568 25.2074 18.553 25.1092L22.153 23.3092C22.2706 23.2493 22.3989 23.2132 22.5305 23.2031C22.6621 23.193 22.7944 23.2091 22.9197 23.2504C23.0451 23.2916 23.161 23.3573 23.2609 23.4436C23.3607 23.5299 23.4425 23.6351 23.5015 23.7532C23.5605 23.8712 23.5956 23.9998 23.6046 24.1315C23.6137 24.2631 23.5966 24.3953 23.5544 24.5203C23.5121 24.6454 23.4455 24.7608 23.3585 24.86C23.2714 24.9591 23.1655 25.0401 23.047 25.0982L20.13 26.5532L20.82 30.0002H22C22.2652 30.0002 22.5196 30.1055 22.7071 30.2931C22.8947 30.4806 23 30.735 23 31.0002C23 31.2654 22.8947 31.5198 22.7071 31.7073C22.5196 31.8948 22.2652 32.0002 22 32.0002Z" fill="#04009A"/>
<path d="M30 32.0001H26C25.7348 32.0001 25.4804 31.8948 25.2929 31.7072C25.1054 31.5197 25 31.2653 25 31.0001C25 30.7349 25.1054 30.4806 25.2929 30.293C25.4804 30.1055 25.7348 30.0001 26 30.0001H29.18L29.87 26.5531L26.953 25.1001C26.8345 25.0421 26.7286 24.9611 26.6416 24.8619C26.5545 24.7627 26.4879 24.6473 26.4457 24.5223C26.4034 24.3973 26.3863 24.2651 26.3954 24.1334C26.4045 24.0018 26.4395 23.8732 26.4985 23.7551C26.5575 23.6371 26.6393 23.5319 26.7391 23.4456C26.839 23.3593 26.9549 23.2936 27.0803 23.2523C27.2056 23.211 27.3379 23.195 27.4695 23.2051C27.6011 23.2152 27.7294 23.2512 27.847 23.3111L31.447 25.1111C31.6428 25.2092 31.8011 25.3689 31.8974 25.5656C31.9937 25.7624 32.0227 25.9853 31.98 26.2001L30.98 31.2001C30.9339 31.426 30.8112 31.629 30.6326 31.7748C30.454 31.9206 30.2305 32.0002 30 32.0001Z" fill="#04009A"/>
<path d="M7 26C6.0111 26 5.0444 25.7068 4.22215 25.1574C3.39991 24.6079 2.75904 23.8271 2.3806 22.9134C2.00217 21.9998 1.90315 20.9945 2.09608 20.0246C2.289 19.0546 2.76521 18.1637 3.46447 17.4645C4.16373 16.7652 5.05465 16.289 6.02455 16.0961C6.99446 15.9031 7.99979 16.0022 8.91342 16.3806C9.82705 16.759 10.6079 17.3999 11.1573 18.2222C11.7068 19.0444 12 20.0111 12 21C11.9984 22.3256 11.4711 23.5964 10.5338 24.5338C9.59644 25.4711 8.3256 25.9984 7 26ZM7 18C6.40666 18 5.82664 18.1759 5.33329 18.5056C4.83994 18.8352 4.45543 19.3038 4.22836 19.852C4.0013 20.4001 3.94189 21.0033 4.05765 21.5853C4.1734 22.1672 4.45912 22.7018 4.87868 23.1213C5.29824 23.5409 5.83279 23.8266 6.41473 23.9424C6.99667 24.0581 7.59987 23.9987 8.14805 23.7716C8.69623 23.5446 9.16477 23.1601 9.49441 22.6667C9.82406 22.1734 10 21.5933 10 21C10 20.2044 9.68393 19.4413 9.12132 18.8787C8.55871 18.3161 7.79565 18 7 18Z" fill="#04009A"/>
<path d="M4.00003 32H2.00003C1.76949 32 1.54603 31.9204 1.36744 31.7746C1.18886 31.6289 1.06613 31.4259 1.02003 31.2L0.0200252 26.2C-0.0231354 25.9848 0.00566339 25.7615 0.101982 25.5643C0.198301 25.3672 0.356792 25.2072 0.553025 25.109L4.15303 23.309C4.27062 23.2503 4.39863 23.2153 4.52974 23.2061C4.66086 23.1969 4.7925 23.2135 4.91716 23.2552C5.04183 23.2968 5.15706 23.3626 5.2563 23.4488C5.35554 23.535 5.43682 23.6399 5.49553 23.7575C5.55423 23.8751 5.58919 24.0031 5.59842 24.1342C5.60765 24.2653 5.59096 24.397 5.54932 24.5216C5.50767 24.6463 5.44188 24.7615 5.35569 24.8608C5.26951 24.96 5.16462 25.0413 5.04703 25.1L2.13003 26.553L2.82003 30H4.00003C4.26524 30 4.5196 30.1053 4.70713 30.2929C4.89467 30.4804 5.00003 30.7348 5.00003 31C5.00003 31.2652 4.89467 31.5195 4.70713 31.7071C4.5196 31.8946 4.26524 32 4.00003 32Z" fill="#04009A"/>
<path d="M12 32.0001H8C7.73478 32.0001 7.48043 31.8948 7.29289 31.7072C7.10536 31.5197 7 31.2653 7 31.0001C7 30.7349 7.10536 30.4806 7.29289 30.293C7.48043 30.1055 7.73478 30.0001 8 30.0001H11.18L11.87 26.5531L8.953 25.1001C8.83449 25.0421 8.72864 24.9611 8.64156 24.8619C8.55449 24.7627 8.48791 24.6473 8.44566 24.5223C8.40341 24.3973 8.38632 24.2651 8.39539 24.1334C8.40446 24.0018 8.4395 23.8732 8.4985 23.7551C8.5575 23.6371 8.63928 23.5319 8.73913 23.4456C8.83898 23.3593 8.95493 23.2936 9.08029 23.2523C9.20564 23.211 9.33793 23.195 9.46952 23.2051C9.60111 23.2152 9.72941 23.2512 9.847 23.3111L13.447 25.1111C13.6428 25.2092 13.8011 25.3689 13.8974 25.5656C13.9937 25.7624 14.0227 25.9853 13.98 26.2001L12.98 31.2001C12.9339 31.426 12.8112 31.629 12.6326 31.7748C12.454 31.9206 12.2305 32.0002 12 32.0001Z" fill="#04009A"/>
<path d="M16.7059 16H15.2939C14.686 15.9984 14.1034 15.7562 13.6736 15.3264C13.2437 14.8965 13.0015 14.3139 12.9999 13.706C13 13.6544 12.9865 13.6036 12.9607 13.5589C12.9349 13.5141 12.8978 13.4769 12.8531 13.4511C12.8084 13.4252 12.7577 13.4116 12.706 13.4116C12.6544 13.4116 12.6036 13.4252 12.5589 13.451C12.298 13.6018 12.0098 13.6997 11.711 13.7391C11.4122 13.7785 11.1085 13.7587 10.8173 13.6807C10.5262 13.6027 10.2533 13.468 10.0142 13.2845C9.7751 13.101 9.57452 12.8721 9.42392 12.611L8.72392 11.389C8.42125 10.8617 8.33971 10.2359 8.49712 9.64864C8.65453 9.06135 9.03809 8.56028 9.56392 8.255C9.60854 8.22904 9.64557 8.19183 9.67131 8.14709C9.69705 8.10234 9.7106 8.05162 9.7106 8C9.7106 7.94838 9.69705 7.89766 9.67131 7.85291C9.64557 7.80817 9.60854 7.77096 9.56392 7.745C9.03809 7.43972 8.65453 6.93865 8.49712 6.35136C8.33971 5.76407 8.42125 5.13834 8.72392 4.611L9.42892 3.389C9.57952 3.1279 9.7801 2.89904 10.0192 2.7155C10.2583 2.53196 10.5312 2.39734 10.8223 2.31933C11.1135 2.24132 11.4172 2.22145 11.716 2.26086C12.0148 2.30027 12.303 2.39818 12.5639 2.549C12.6085 2.57359 12.6587 2.58619 12.7096 2.58555C12.7605 2.58491 12.8104 2.57106 12.8544 2.54535C12.8983 2.51965 12.9348 2.48297 12.9603 2.43891C12.9859 2.39485 12.9995 2.34491 12.9999 2.294C13.0015 1.68608 13.2437 1.10351 13.6736 0.673647C14.1034 0.243781 14.686 0.00158382 15.2939 0L16.7059 0C17.3138 0.00158382 17.8964 0.243781 18.3263 0.673647C18.7561 1.10351 18.9983 1.68608 18.9999 2.294C18.9988 2.34588 19.0119 2.39707 19.0378 2.44203C19.0637 2.48698 19.1015 2.52398 19.1469 2.549C19.1915 2.5751 19.2423 2.58886 19.2939 2.58886C19.3456 2.58886 19.3963 2.5751 19.4409 2.549C19.7019 2.39818 19.99 2.30027 20.2889 2.26086C20.5877 2.22145 20.8913 2.24132 21.1825 2.31933C21.4736 2.39734 21.7466 2.53196 21.9857 2.7155C22.2247 2.89904 22.4253 3.1279 22.5759 3.389L23.2759 4.611C23.5786 5.13834 23.6601 5.76407 23.5027 6.35136C23.3453 6.93865 22.9618 7.43972 22.4359 7.745C22.3913 7.77096 22.3543 7.80817 22.3285 7.85291C22.3028 7.89766 22.2892 7.94838 22.2892 8C22.2892 8.05162 22.3028 8.10234 22.3285 8.14709C22.3543 8.19183 22.3913 8.22904 22.4359 8.255C22.9618 8.56028 23.3453 9.06135 23.5027 9.64864C23.6601 10.2359 23.5786 10.8617 23.2759 11.389L22.5759 12.611C22.4253 12.8721 22.2247 13.101 21.9857 13.2845C21.7466 13.468 21.4736 13.6027 21.1825 13.6807C20.8913 13.7587 20.5877 13.7785 20.2889 13.7391C19.99 13.6997 19.7019 13.6018 19.4409 13.451C19.3964 13.4246 19.3457 13.4107 19.2939 13.4107C19.2422 13.4107 19.1914 13.4246 19.1469 13.451C19.1015 13.476 19.0637 13.513 19.0378 13.558C19.0119 13.6029 18.9988 13.6541 18.9999 13.706C18.9983 14.3139 18.7561 14.8965 18.3263 15.3264C17.8964 15.7562 17.3138 15.9984 16.7059 16ZM12.7059 11.408C13.3145 11.4096 13.8977 11.6523 14.3277 12.0831C14.7577 12.5138 14.9994 13.0974 14.9999 13.706C14.9999 13.784 15.0309 13.8588 15.086 13.9139C15.1412 13.969 15.2159 14 15.2939 14H16.7059C16.7839 14 16.8587 13.969 16.9138 13.9139C16.9689 13.8588 16.9999 13.784 16.9999 13.706C16.9999 13.3033 17.1058 12.9077 17.3071 12.5589C17.5084 12.2101 17.798 11.9205 18.1468 11.7191C18.4955 11.5177 18.8911 11.4117 19.2938 11.4117C19.6965 11.4116 20.0922 11.5176 20.4409 11.719C20.4742 11.7391 20.5113 11.752 20.5499 11.757C20.5884 11.762 20.6276 11.7589 20.6649 11.748C20.7023 11.7384 20.7374 11.7213 20.768 11.6978C20.7986 11.6742 20.8241 11.6447 20.8429 11.611L21.5489 10.389C21.5876 10.3216 21.598 10.2416 21.5778 10.1666C21.5575 10.0916 21.5083 10.0277 21.4409 9.989C21.0923 9.7875 20.8028 9.49782 20.6015 9.14904C20.4003 8.80027 20.2943 8.40468 20.2943 8.002C20.2943 7.59932 20.4003 7.20373 20.6015 6.85496C20.8028 6.50618 21.0923 6.2165 21.4409 6.015C21.5083 5.97627 21.5575 5.91238 21.5778 5.83736C21.598 5.76235 21.5876 5.68237 21.5489 5.615L20.8429 4.393C20.8241 4.3593 20.7986 4.32978 20.768 4.30622C20.7374 4.28267 20.7023 4.26559 20.6649 4.256C20.6275 4.24555 20.5885 4.24273 20.55 4.24771C20.5115 4.25269 20.4744 4.26537 20.4409 4.285C20.0919 4.48653 19.6959 4.59253 19.2928 4.59234C18.8898 4.59215 18.4939 4.48577 18.145 4.28392C17.7962 4.08206 17.5067 3.79186 17.3056 3.44252C17.1046 3.09318 16.9992 2.69705 16.9999 2.294C16.9999 2.21603 16.9689 2.14125 16.9138 2.08611C16.8587 2.03097 16.7839 2 16.7059 2H15.2939C15.2159 2 15.1412 2.03097 15.086 2.08611C15.0309 2.14125 14.9999 2.21603 14.9999 2.294C15 2.69671 14.894 3.09234 14.6927 3.44112C14.4914 3.7899 14.2018 4.07954 13.8531 4.28092C13.5043 4.4823 13.1087 4.58832 12.706 4.58834C12.3033 4.58835 11.9077 4.48236 11.5589 4.281C11.5254 4.26137 11.4884 4.24869 11.4499 4.24371C11.4114 4.23873 11.3723 4.24155 11.3349 4.252C11.2975 4.26159 11.2625 4.27867 11.2319 4.30222C11.2013 4.32578 11.1758 4.3553 11.1569 4.389L10.4509 5.611C10.4122 5.67837 10.4018 5.75835 10.4221 5.83336C10.4423 5.90838 10.4916 5.97227 10.5589 6.011C10.9076 6.2125 11.197 6.50218 11.3983 6.85096C11.5996 7.19973 11.7055 7.59532 11.7055 7.998C11.7055 8.40068 11.5996 8.79627 11.3983 9.14504C11.197 9.49382 10.9076 9.7835 10.5589 9.985C10.4916 10.0237 10.4423 10.0876 10.4221 10.1626C10.4018 10.2376 10.4122 10.3176 10.4509 10.385L11.1569 11.607C11.1758 11.6407 11.2013 11.6702 11.2319 11.6938C11.2625 11.7173 11.2975 11.7344 11.3349 11.744C11.3722 11.755 11.4114 11.7581 11.45 11.7531C11.4885 11.7481 11.5256 11.7351 11.5589 11.715C11.9076 11.5137 12.3033 11.4078 12.7059 11.408Z" fill="#77ACF1"/>
<path d="M16 10C15.6044 10 15.2178 9.8827 14.8889 9.66294C14.56 9.44318 14.3036 9.13082 14.1522 8.76537C14.0009 8.39992 13.9613 7.99778 14.0384 7.60982C14.1156 7.22186 14.3061 6.86549 14.5858 6.58579C14.8655 6.30608 15.2219 6.1156 15.6098 6.03843C15.9978 5.96126 16.3999 6.00087 16.7654 6.15224C17.1308 6.30362 17.4432 6.55996 17.6629 6.88886C17.8827 7.21776 18 7.60444 18 8C18 8.53043 17.7893 9.03914 17.4142 9.41421C17.0391 9.78929 16.5304 10 16 10Z" fill="#77ACF1"/>
</svg>
