<svg width="40" height="53" viewBox="0 0 40 53" fill="none" xmlns="http://www.w3.org/2000/svg">
<path d="M6.66682 23.1877V13.2501C6.66682 5.94586 12.6462 0 20 0C27.3517 0 33.3332 5.94586 33.3332 13.2501V23.1877C37.0152 23.1877 40 26.1542 40 29.8123V46.3748C40 50.0341 37.0152 53 33.3332 53H6.66682C2.98558 53 0 50.0341 0 46.3748V29.8123C-0.000110626 26.1541 2.98558 23.1877 6.66682 23.1877ZM18.3332 39.2419V44.7186C18.3332 45.6341 19.0786 46.3748 19.9999 46.3748C20.9212 46.3748 21.6667 45.6341 21.6667 44.7186V39.2419C22.6449 38.6663 23.3331 37.6504 23.3331 36.4376C23.3331 34.6063 21.8406 33.1249 20 33.1249C18.1594 33.1249 16.6666 34.6063 16.6666 36.4376C16.6665 37.6504 17.3555 38.6664 18.3332 39.2419ZM13.3336 23.1877H26.6666V13.2501C26.6666 9.59471 23.6768 6.62495 20 6.62495C16.3249 6.62495 13.3337 9.59471 13.3337 13.2501V23.1877H13.3336Z" fill="#1C4475"/>
<path d="M6.66682 23.1877V13.2501C6.66682 5.94586 12.6462 0 20 0C27.3517 0 33.3332 5.94586 33.3332 13.2501V23.1877C37.0152 23.1877 40 26.1542 40 29.8123V46.3748C40 50.0341 37.0152 53 33.3332 53H6.66682C2.98558 53 0 50.0341 0 46.3748V29.8123C-0.000110626 26.1541 2.98558 23.1877 6.66682 23.1877ZM18.3332 39.2419V44.7186C18.3332 45.6341 19.0786 46.3748 19.9999 46.3748C20.9212 46.3748 21.6667 45.6341 21.6667 44.7186V39.2419C22.6449 38.6663 23.3331 37.6504 23.3331 36.4376C23.3331 34.6063 21.8406 33.1249 20 33.1249C18.1594 33.1249 16.6666 34.6063 16.6666 36.4376C16.6665 37.6504 17.3555 38.6664 18.3332 39.2419ZM13.3336 23.1877H26.6666V13.2501C26.6666 9.59471 23.6768 6.62495 20 6.62495C16.3249 6.62495 13.3337 9.59471 13.3337 13.2501V23.1877H13.3336Z" fill="white" fill-opacity="0.2"/>
</svg>
